<?xml version="1.0" standalone="no"?>
<!DOCTYPE svg PUBLIC "-//W3C//DTD SVG 1.1//EN" "http://www.w3.org/Graphics/SVG/1.1/DTD/svg11.dtd" >
<!--
2013-9-30: Created.
-->
<svg>
<metadata>
Created by iconfont
</metadata>
<defs>

<font id="iconfont" horiz-adv-x="1024" >
  <font-face
    font-family="iconfont"
    font-weight="500"
    font-stretch="normal"
    units-per-em="1024"
    ascent="896"
    descent="-128"
  />
    <missing-glyph />
    
    <glyph glyph-name="x" unicode="x" horiz-adv-x="1001"
d="M281 543q-27 -1 -53 -1h-83q-18 0 -36.5 -6t-32.5 -18.5t-23 -32t-9 -45.5v-76h912v41q0 16 -0.5 30t-0.5 18q0 13 -5 29t-17 29.5t-31.5 22.5t-49.5 9h-133v-97h-438v97zM955 310v-52q0 -23 0.5 -52t0.5 -58t-10.5 -47.5t-26 -30t-33 -16t-31.5 -4.5q-14 -1 -29.5 -0.5
t-29.5 0.5h-32l-45 128h-439l-44 -128h-29h-34q-20 0 -45 1q-25 0 -41 9.5t-25.5 23t-13.5 29.5t-4 30v167h911zM163 247q-12 0 -21 -8.5t-9 -21.5t9 -21.5t21 -8.5q13 0 22 8.5t9 21.5t-9 21.5t-22 8.5zM316 123q-8 -26 -14 -48q-5 -19 -10.5 -37t-7.5 -25t-3 -15t1 -14.5
t9.5 -10.5t21.5 -4h37h67h81h80h64h36q23 0 34 12t2 38q-5 13 -9.5 30.5t-9.5 34.5q-5 19 -11 39h-368zM336 498v228q0 11 2.5 23t10 21.5t20.5 15.5t34 6h188q31 0 51.5 -14.5t20.5 -52.5v-227h-327z" />
    

    
    <glyph glyph-name="chexiao" unicode="&#58900;" d="M894.976 321.536q0-78.848-29.696-148.48t-81.408-123.392-121.856-88.064-151.040-41.472q-5.12-1.024-9.216-1.536t-9.216-0.512h-177.152q-17.408 0-34.304 6.144t-30.208 16.896-22.016 25.088-8.704 29.696 8.192 29.696 21.504 24.576 29.696 16.384 33.792 6.144l158.72-1.024q54.272 0 102.4 19.968t83.968 53.76 56.32 79.36 20.48 97.792q0 49.152-18.432 92.16t-50.688 76.8-75.264 54.784-93.184 26.112q-2.048 0-2.56-0.512t-2.56-0.512h-162.816v-80.896q0-17.408-13.824-25.6t-44.544 10.24q-8.192 5.12-26.112 17.92t-41.984 30.208-50.688 36.864l-51.2 38.912q-15.36 12.288-26.624 22.016t-11.264 24.064q0 12.288 12.8 25.6t29.184 26.624q18.432 15.36 44.032 35.84t50.688 39.936 45.056 35.328 28.16 22.016q24.576 17.408 39.936 7.168t16.384-30.72v-81.92h162.816q5.12 0 10.752-1.024t10.752-2.048q79.872-8.192 149.504-41.984t121.344-87.552 80.896-123.392 29.184-147.456z"  horiz-adv-x="1024" />

    
    <glyph glyph-name="fanchexiao" unicode="&#58903;" d="M108.544 323.584q0 77.824 29.184 147.456t80.896 123.392 121.344 87.552 149.504 41.984q10.24 3.072 21.504 3.072h162.816v81.92q1.024 20.48 16.384 30.72t39.936-7.168q7.168-5.12 27.648-20.992t45.568-35.84 50.688-40.448 44.032-35.84q16.384-13.312 28.672-26.624t12.288-25.6q0-14.336-10.752-24.064t-26.112-22.016l-51.2-38.912q-26.624-19.456-50.688-36.864t-42.496-30.208-26.624-16.896q-15.36-9.216-26.112-11.776t-17.408 0.512-10.24 10.24-3.584 15.36v81.92h-167.936q-50.176-5.12-93.184-26.112t-75.264-54.784-50.688-76.8-18.432-92.16q0-52.224 20.48-97.792t56.32-79.36 83.968-53.76 102.4-19.968l158.72 1.024q16.384 0 33.28-6.144t29.696-16.384 20.992-24.064 8.192-30.208q0-15.36-8.192-29.696t-22.016-24.576-30.72-16.384-33.28-6.144h-186.368q-4.096 0-9.216 1.024-80.896 7.168-151.040 41.472t-121.856 88.064-81.408 123.392-29.696 148.48z"  horiz-adv-x="1024" />

    
    <glyph glyph-name="plus1" unicode="&#58896;" d="M514.185 863.505q99.396 0 187.324-37.683t153.463-103.219 103.219-153.463 37.683-187.324q0-100.489-37.683-187.87t-103.219-152.917-153.463-103.219-187.324-37.683q-100.489 0-188.416 37.683t-153.463 103.219-103.219 152.917-37.683 187.87q0 99.396 37.683 187.324t103.219 153.463 153.463 103.219 188.416 37.683zM789.436 315.187q28.399 0 48.060 20.207t19.661 48.606-19.661 48.060-48.060 19.661h-205.346v205.346q0 28.399-20.207 48.606t-48.606 20.207-48.060-20.207-19.661-48.606v-205.346h-205.346q-28.399 0-48.060-19.661t-19.661-48.060 19.661-48.606 48.060-20.207h205.346v-204.254q0-28.399 19.661-48.606t48.060-20.207 48.606 20.207 20.207 48.606v204.254h205.346z"  horiz-adv-x="1024" />

    
    <glyph glyph-name="phone" unicode="&#58915;" d="M725.33333333 293.33333332999996c-64-64-64-128-128-128s-128 64-192 128-128 128-128 192 64 64 128 128-128 256-192 256-192-192-192-192c0-128 131.488-387.488 256-512s384-256 512-256c0 0 192 128 192 192s-192 256-256 192z"  horiz-adv-x="1024" />

    
    <glyph glyph-name="huanyipi" unicode="&#58881;" d="M989.018112 509.003776 632.343552 509.003776l133.317632 133.317632c-67.369984 67.36384-156.937216 104.465408-252.207104 104.465408-95.269888 0-184.841216-37.09952-252.208128-104.46336-67.362816-67.36896-104.465408-156.93824-104.465408-252.210176 0-95.271936 37.102592-184.839168 104.465408-252.208128 67.366912-67.359744 156.937216-104.464384 252.208128-104.464384 95.271936 0 184.839168 37.103616 252.209152 104.469504 5.623808 5.623808 11.014144 11.413504 16.210944 17.339392l89.463808-78.280704c-87.163904-99.544064-215.177216-162.41664-357.883904-162.41664-262.648832 0-475.565056 212.917248-475.565056 475.563008 0 262.65088 212.917248 475.56608 475.565056 475.56608 131.325952 0 250.202112-53.248 336.256-139.313152L989.021184 865.678336l0-356.67456L989.018112 509.003776z"  horiz-adv-x="1024" />

    
    <glyph glyph-name="home" unicode="&#58933;" d="M979.289 374.484l-443.209 443.189c-3.535 3.534-7.657 6.122-12.047 7.78-12.349 5.074-27.072 2.601-37.103-7.43l-443.558-443.539c-13.322-13.319-13.322-34.918 0-48.238 13.322-13.322 34.919-13.322 48.241-0.001l419.717 419.699 419.717-419.699c13.322-13.321 34.919-13.321 48.241 0.001 13.322 13.319 13.322 34.918 0.001 48.238zM787.061 360.315c-18.839 0-34.112-15.271-34.112-34.11v-283.056h-483.538v283.056c0 18.838-15.273 34.11-34.112 34.11s-34.112-15.271-34.112-34.11v-317.166c0-18.251 14.333-33.152 32.356-34.065 0.581-0.030 1.167-0.045 1.756-0.045h551.762c0.677 0 1.35 0.026 2.019 0.064 1.652 0.097 3.275 0.306 4.855 0.628 5.296 1.084 10.138 3.402 14.229 6.629 1.056 0.834 2.067 1.719 3.018 2.669 0.113 0.113 0.22 0.233 0.331 0.347 1.029 1.059 1.998 2.179 2.884 3.363 0.007 0.010 0.014 0.020 0.021 0.030 1.627 2.181 3.001 4.562 4.074 7.102 0.086 0.203 0.16 0.411 0.242 0.614 0.143 0.357 0.286 0.713 0.417 1.076 0.283 0.781 0.529 1.577 0.755 2.383 0.164 0.588 0.314 1.181 0.447 1.781 0.076 0.341 0.147 0.685 0.212 1.028 0.393 2.071 0.608 4.208 0.608 6.395v317.167c-0.002 18.837-15.275 34.11-34.114 34.11z"  horiz-adv-x="1024" />

    
    <glyph glyph-name="gouwuche" unicode="&#58918;" d="M1015.692 701.076l-107.226-348.62c-33.233-54.309-71.666-49.195-71.215-49.195h-530.172l12.7-73.756h564.949c29.507 0 29.507-73.732 0-73.732h-593.458c-0.356 0-31.975 5.728-47.476 49.146l-106.111 614.659h-107.534c-29.507 0-29.507 73.756 0 73.756h118.692c19.49 0 52.2 1.008 56.26-22.716l93.481-493.575h538.646c-0.047 0.787 103.57 295.024 103.57 295.024h-602.051c-29.507 0-29.507 73.756 0 73.756h640.934c1.971 0 39.999-5.63 36.011-44.746zM338.746 82.016c52.438 0 94.953-44.007 94.953-98.316 0-54.334-42.515-98.366-94.953-98.366s-94.953 44.032-94.953 98.366c0 54.284 42.515 98.316 94.953 98.316zM338.746-53.204c19.655 0 35.608 16.522 35.608 36.902 0 20.357-15.952 36.878-35.608 36.878s-35.608-16.522-35.608-36.878c0-20.406 15.928-36.902 35.608-36.902zM742.297-16.326c0 54.309 42.515 98.316 94.953 98.316s94.953-44.007 94.953-98.316c0-54.334-42.515-98.366-94.953-98.366s-94.953 44.057-94.953 98.366zM872.858-16.326c0 20.357-15.952 36.878-35.608 36.878s-35.608-16.522-35.608-36.878c0-20.381 15.952-36.902 35.608-36.902s35.608 16.522 35.608 36.902z"  horiz-adv-x="1024" />

    
    <glyph glyph-name="more" unicode="&#58893;" d="M512-110.893c-272.854 0-494.893 222.039-494.893 494.893s222.039 494.893 494.893 494.893c272.854 0 494.893-222.039 494.893-494.893 0-272.854-222.039-494.893-494.893-494.893v0zM512 807.919c-233.777 0-423.919-190.142-423.919-423.919 0-233.638 190.142-423.919 423.919-423.919 233.638 0 423.919 190.142 423.919 423.919 0 233.777-190.279 423.919-423.919 423.919v0zM749.505 515.318zM404.708 514.49c-4.004 4.004-7.043 8.561-8.975 13.67s-3.038 10.356-3.038 15.603c0 5.246 0.967 10.356 3.038 15.327 1.933 4.971 4.971 9.527 8.975 13.395 8.009 8.285 17.537 12.428 28.583 12.428s20.714-4.143 28.583-12.428l158.521-159.763c4.004-3.453 6.905-7.732 8.561-12.841s2.486-10.494 2.071-16.294c-0.275-5.662-1.518-11.323-3.867-16.846-2.209-5.523-5.386-10.356-9.39-14.361l-156.035-157.279c-8.009-8.285-17.537-12.428-28.583-12.428s-20.714 4.143-28.583 12.428c-4.004 4.004-7.043 8.425-8.975 13.395-1.933 4.971-3.038 10.081-3.038 15.327 0 5.246 0.967 10.494 3.038 15.603 1.933 5.109 4.971 9.666 8.975 13.67l129.108 130.351-128.972 131.041zM404.708 514.49z"  horiz-adv-x="1024" />

    
    <glyph glyph-name="save" unicode="&#59012;" d="M867.097-64.73c-236.782 0-473.561 0-710.319 0-1.621 0.57-3.219 1.368-4.881 1.662-41.11 7.36-68.489 30.932-82.43 70.13-2.399 6.751-3.64 13.94-5.426 20.924 0 236.778 0 473.558 0 710.32 0.566 1.638 1.345 3.215 1.662 4.897 8.433 45.148 35.242 73.16 79.338 84.998 3.893 1.052 7.823 1.894 11.737 2.838 203.532 0 407.047 0 610.579 0 25.424-5.612 45.38-20.776 63.487-38.124 30.071-28.829 59.594-58.25 88.509-88.258 18.188-18.861 34.527-39.428 40.456-66.068 0-203.536 0-407.071 0-610.603-0.565-1.62-1.344-3.198-1.66-4.88-8.434-45.168-35.223-73.157-79.34-85.019-3.87-1.030-7.803-1.891-11.712-2.817zM511.989-30.452c101.755 0 203.491-0.024 305.228 0.040 25.886 0 39.532 13.606 39.532 39.22 0.021 111.658 0.021 223.32 0 334.962 0 25.717-13.752 39.597-39.216 39.597-203.789 0.020-407.553 0.020-611.321 0-25.063-0.023-39.091-13.924-39.091-38.862-0.041-111.935-0.041-223.89 0.020-335.824 0-4.059 0.108-8.222 1.032-12.134 4.186-17.705 17.476-26.958 38.609-26.979 101.736-0.045 203.471-0.020 305.207-0.020zM494.429 486.194c72.591 0 145.161 0 217.729 0 27.884 0.020 41.302 13.374 41.302 41.174 0.021 76.079 0.021 152.142 0 228.221 0 27.989-13.146 41.154-41.197 41.154-145.158 0.020-290.296 0.020-435.434 0-27.487 0-40.922-13.29-40.942-40.628-0.064-76.355-0.064-152.708 0-229.083 0.020-27.315 13.604-40.817 40.837-40.817 72.567-0.021 145.137-0.021 217.705-0.021zM581.782 761.518c34.13 0 67.269 0 101.189 0 0-79.969 0-159.54 0-239.617-33.668 0-67.060 0-101.189 0 0 79.655 0 159.246 0 239.617z"  horiz-adv-x="1024" />

    
    <glyph glyph-name="down" unicode="&#58959;" d="M764.623601 281.925207l-223.00912-223.00912c-3.837398-3.837398-9.046027-5.996574-14.479783-5.996574-5.423523 0-10.632151 2.159176-14.46955 5.996574l-223.019353 223.019353c-7.992021 7.992021-7.992021 20.957311 0 28.949332s20.957311 7.992021 28.949332 0l188.073446-188.083679 0 604.753497c0 11.307533 9.15859 20.466124 20.466124 20.466124 11.2973 0 20.466124-9.15859 20.466124-20.466124l0-604.753497 188.073446 188.063213c7.992021 7.992021 20.957311 8.002254 28.949332 0.010233C772.615623 302.87228500000003 772.615623 289.917228 764.623601 281.925207z"  horiz-adv-x="1024" />

    
    <glyph glyph-name="delete" unicode="&#59037;" d="M972.657609 686.651592C987.158609 686.63161 998.930114 698.428798 998.949999 713.00135 998.969882 727.573903 987.230618 739.40349 972.729617 739.423472L32.457975 740.719194C17.956974 740.739177 6.18547 728.941988 6.165585 714.369436 6.1457 699.796884 17.884965 687.967297 32.385966 687.947314L972.657609 686.651592ZM180.466902-96.356169 180.466902-123.014859 206.993296-122.74074 833.361858-116.267947 859.348284-115.999407 859.348284-89.883377 859.348284 606.602703C859.348284 621.175268 847.59289 632.988668 833.091874 632.988668 818.590859 632.988668 806.835465 621.175268 806.835465 606.602703L806.835465-89.883377 832.82189-63.498805 206.453329-69.971599 232.979723-96.356169 232.979723 613.32995C232.979723 627.902517 221.224329 639.715915 206.723313 639.715915 192.222298 639.715915 180.466902 627.902517 180.466902 613.32995L180.466902-96.356169ZM656.410257 48.920973C656.410257 34.348407 668.165651 22.535008 682.666667 22.535008 697.167682 22.535008 708.923076 34.348407 708.923076 48.920973L708.923076 523.868341C708.923076 538.440909 697.167682 550.254306 682.666667 550.254306 668.165651 550.254306 656.410257 538.440909 656.410257 523.868341L656.410257 48.920973ZM341.333333 48.920973C341.333333 34.348407 353.08873 22.535008 367.589743 22.535008 382.090758 22.535008 393.846155 34.348407 393.846155 48.920973L393.846155 523.868341C393.846155 538.440909 382.090758 550.254306 367.589743 550.254306 353.08873 550.254306 341.333333 538.440909 341.333333 523.868341L341.333333 48.920973ZM498.871795 48.920973C498.871795 34.348407 510.627189 22.535008 525.128205 22.535008 539.62922 22.535008 551.384614 34.348407 551.384614 48.920973L551.384614 523.868341C551.384614 538.440909 539.62922 550.254306 525.128205 550.254306 510.627189 550.254306 498.871795 538.440909 498.871795 523.868341L498.871795 48.920973ZM392.147755 779.278223C392.147755 793.936331 403.758665 805.636493 418.40134 805.636493L622.925796 805.636493C637.408947 805.636493 649.179381 793.8381 649.179381 779.450415L649.179381 724.355125 701.692203 724.355125 701.692203 779.450415C701.692203 823.013393 666.38105 858.408423 622.925796 858.408423L418.40134 858.408423C374.724427 858.408423 339.634933 823.049196 339.634933 779.278223L339.634933 730.689199 392.147755 730.689199 392.147755 779.278223Z"  horiz-adv-x="1024" />

    
    <glyph glyph-name="warning" unicode="&#59044;" d="M1024 384c0 282.77-229.23 512-512 512-282.77 0-512-229.23-512-512 0-282.77 229.23-512 512-512 117.411 0 228.826 39.669 318.768 111.313 10.789 8.594 12.568 24.307 3.974 35.097-8.594 10.789-24.307 12.568-35.097 3.974-81.176-64.662-181.644-100.433-287.646-100.433-255.182 0-462.049 206.866-462.049 462.049 0 255.182 206.866 462.049 462.049 462.049 255.182 0 462.049-206.866 462.049-462.049 0-87.493-24.334-171.337-69.578-243.961-7.294-11.708-3.716-27.111 7.992-34.405 11.708-7.294 27.111-3.716 34.405 7.992 50.146 80.493 77.132 173.475 77.132 270.374zM499.512 152.976c0-13.794 11.182-24.976 24.976-24.976 13.794 0 24.976 11.182 24.976 24.976v318.439c0 13.794-11.182 24.976-24.976 24.976-13.794 0-24.976-11.182-24.976-24.976v-318.439zM499.512 577.561c0-13.794 11.182-24.976 24.976-24.976 13.794 0 24.976 11.182 24.976 24.976v43.707c0 13.794-11.182 24.976-24.976 24.976-13.794 0-24.976-11.182-24.976-24.976v-43.707z"  horiz-adv-x="1024" />

    
    <glyph glyph-name="zhanghao" unicode="&#58995;" d="M512.023075 196.012439c-169.855195 0-308.028393 138.150123-308.028393 308.005318S342.16788 812 512.023075 812C681.855195 812 820.028393 673.849877 820.028393 503.994682S681.855195 196.012439 512.023075 196.012439zM512.023075 740.075174c-130.166167 0-236.057417-105.914325-236.057417-236.057417s105.914325-236.057417 236.057417-236.057417 236.034342 105.914325 236.034342 236.057417S642.189242 740.075174 512.023075 740.075174zM920.035514-212c-19.867589 0-35.97395 16.083286-35.97395 35.97395 0 205.136895-166.901593 372.038488-372.038488 372.038488-205.15997 0-372.038488-166.901593-372.038488-372.038488 0-19.867589-16.129436-35.97395-35.997025-35.97395S68.013611-195.916714 68.013611-176.02605c0 244.802848 199.183541 443.963314 444.009464 443.963314 244.802848 0 443.963314-199.160466 443.963314-443.963314C955.986389-195.916714 939.903103-212 920.035514-212z"  horiz-adv-x="1024" />

    
    <glyph glyph-name="house" unicode="&#58894;" d="M844.394-60.748h-268.169v237.222h-121.588v-239.052h-275.633c-14.893 0-21.401 8.572-21.401 28.332v269.938c0 19.76 3.443 35.973 16.91 53.961l341.682 377.669 341.712-377.669c13.453-17.986 13.453-34.202 13.453-53.961v-260.64c-0.001-19.761-12.031-35.801-26.966-35.801v0zM941.562 309.875c-8.544-7.525-19.149-11.244-29.696-11.244-12.465 0-24.873 5.201-33.764 15.255l-361.905 411.243-361.892-411.244c-16.401-18.626-44.805-20.429-63.446-4.011-18.64 16.388-20.428 44.806-4.026 63.431l395.612 449.587c8.557 9.722 20.848 15.255 33.75 15.255 12.93 0 25.193-5.535 33.764-15.255l395.611-449.587c16.42-18.624 14.619-47.042-4.007-63.431v0zM724.593 667.322v44.938c0 14.935 19.526 26.979 34.404 26.979h89.931c14.878 0 23.216-12.045 23.216-26.979v-215.807l-147.552 170.869z"  horiz-adv-x="1024" />

    
    <glyph glyph-name="jia" unicode="&#58882;" d="M580.722174 458.009597 580.722174 817.828616 436.794158 817.828616 436.794158 458.009597 76.975139 458.009597 76.975139 314.081581 436.794158 314.081581 436.794158-45.737438 580.722174-45.737438 580.722174 314.081581 940.542216 314.081581 940.542216 458.009597Z"  horiz-adv-x="1024" />

    
    <glyph glyph-name="jian" unicode="&#58883;" d="M587.229378 458.009597 580.722174 458.009597 76.975139 458.009597 76.975139 314.081581 580.722174 314.081581 587.229378 314.081581 940.542216 314.081581 940.542216 458.009597Z"  horiz-adv-x="1024" />

    
    <glyph glyph-name="rili" unicode="&#58983;" d="M870.208 762.816l-37.376 0 0-181.568c0-38.592-31.296-69.952-69.952-69.952-38.592 0-69.888 31.36-69.888 69.952L692.992 762.816l-360.96 0 0-181.12c0-38.656-31.36-70.016-70.016-70.016-38.592 0-69.888 31.36-69.888 70.016l0 181.12-38.4 0C104.128 762.816 64 722.624 64 673.088l0-196.48 896 0 0 196.48C960 722.624 919.872 762.816 870.208 762.816zM315.328 600.832c0-29.632-24.064-53.568-53.568-53.568l0 0c-29.632 0-53.568 23.936-53.568 53.568L208.192 777.472c0 29.632 24 53.568 53.568 53.568l0 0c29.504 0 53.568-23.936 53.568-53.568L315.328 600.832zM817.92 600.832c0-29.632-23.936-53.568-53.632-53.568l0 0c-29.632 0-53.568 23.936-53.568 53.568L710.72 777.472c0 29.632 23.936 53.568 53.568 53.568l0 0c29.696 0 53.632-23.936 53.632-53.568L817.92 600.832zM907.648 439.488l0-7.04 0-102.016 0-249.856c0-49.536-40.128-89.664-89.664-89.664L205.312-9.088c-49.536 0-89.664 40.128-89.664 89.664l0 258.56L115.648 432.064 115.648 439.488 64 439.488l0-88.576 0-11.84 0-312.384c0-49.536 40.128-89.792 89.792-89.792l716.352 0c49.664 0 89.792 40.256 89.792 89.792L959.936 330.432l0 20.48L959.936 439.488 907.648 439.488zM537.152 179.328l70.464 0c6.976-32.256 24.896-41.536 42.368-41.536 25.92 0 41.664 16.768 41.664 46.272 0 16.64-6.208 40.064-41.664 40.96L627.52 225.024 627.52 269.184l10.176 0c35.456 0.896 43.968 15.424 43.968 42.24 0 17.344-12.864 29.952-33.664 30.528C620.736 342.656 616.576 330.112 609.728 313.6L543.744 313.472c15.296 50.752 50.752 76.544 106.304 77.44 67.328-1.792 102.208-28.992 104.64-81.536 0-25.792-14.848-45.312-44.288-58.176 37.696-12.928 56.64-36.032 56.64-69.12-2.368-55.36-41.344-84.416-116.928-87.168C586.24 94.848 547.776 125.824 537.152 179.328zM488.512 161.344l0-62.4L261.76 98.944l0 40.256c24.704 38.72 49.344 67.776 95.488 97.28 42.432 27.712 57.216 48.832 57.216 69.12 0 4.48 0.192 27.712-33.984 27.712C356.672 332.416 339.2 321.664 339.2 297.152L267.008 296.704c4.16 69.568 60.8 94.272 118.784 94.272 66.048-2.752 101.504-30.848 106.24-84.288 2.368-36.032-17.92-70.464-73.472-104.576-30.72-18.368-33.472-20.416-52.288-40.704L488.512 161.408z"  horiz-adv-x="1024" />

    
    <glyph glyph-name="mima" unicode="&#58921;" d="M804.522667-212 219.409067-212C136.055467-212 68.266667-147.761067 68.266667-68.64L68.266667 259.04C68.266667 338.161067 136.055467 402.4 219.409067 402.4l585.1136 0C887.944533 402.4 955.733333 338.161067 955.733333 259.04L955.733333-68.64C955.733333-147.761067 887.944533-212 804.522667-212zM219.409067 334.133333C173.738667 334.133333 136.533333 300.477867 136.533333 259.04L136.533333-68.64C136.533333-110.077867 173.738667-143.733333 219.409067-143.733333l585.1136 0C850.261333-143.733333 887.466667-110.077867 887.466667-68.64L887.466667 259.04C887.466667 300.477867 850.261333 334.133333 804.522667 334.133333L219.409067 334.133333zM716.8 334.133333C697.9584 334.133333 682.666667 349.425067 682.666667 368.266667l0 204.8C682.666667 667.138133 606.139733 743.733333 512 743.733333 417.928533 743.733333 341.333333 667.138133 341.333333 573.066667l0-204.8C341.333333 349.425067 326.0416 334.133333 307.2 334.133333S273.066667 349.425067 273.066667 368.266667l0 204.8C273.066667 704.821333 380.245333 812 512 812S750.933333 704.821333 750.933333 573.066667l0-204.8C750.933333 349.425067 735.6416 334.133333 716.8 334.133333z"  horiz-adv-x="1024" />

    
    <glyph glyph-name="rmb" unicode="&#58980;" d="M881.447 901.422l-273.787-465.78h215.732v-102.911h-251.356v-141.825h251.356v-104.216h-251.356v-206.498h-129.303v206.498h-260.589v104.216h260.589v141.825h-260.589v102.911h222.351l-271.174 465.78h145.789c126.691-231.357 203.615-378.048 230.908-440.065h2.657c9.231 25.491 34.544 76.969 75.889 154.39l155.019 285.675h137.862z"  horiz-adv-x="1024" />

    
    <glyph glyph-name="plus" unicode="&#58949;" d="M991.977 382.687c0-117.961-0.028-235.922 0.026-353.883 0.010-20.977-3.324-41.205-13.507-59.752-21.491-39.144-54.373-61.106-99.164-64.493-7.374-0.557-14.803-0.515-22.209-0.516-232.412-0.024-464.824-0.009-697.237-0.041-17.491-0.003-34.69 1.759-50.875 8.784-40.735 17.685-65.675 48.201-73.393 92.146-1.406 8.006-1.755 16.283-1.758 24.437-0.089 235.924-0.016 471.845-0.124 707.767-0.017 42.922 16.107 77.647 50.976 103.030 22.057 16.058 47.201 22.124 74.278 22.105 175.284-0.118 350.571-0.060 525.854-0.060 61.027 0 122.055-0.062 183.082 0.030 24.54 0.038 47.619-5.198 68.255-18.827 33.699-22.257 52.545-53.467 55.277-93.992 0.484-7.187 0.499-14.415 0.5-21.625 0.030-115.035 0.020-230.072 0.020-345.109zM71.751 383.703c0-119.142-0.041-238.287 0.020-357.43 0.025-48.41 35.858-84.261 84.265-84.27 237.897-0.043 475.793-0.043 713.691 0 48.409 0.009 84.261 35.859 84.27 84.267 0.043 237.896 0.034 475.793-0.058 713.689-0.002 6.389-0.496 12.918-1.862 19.14-8.632 39.292-41.337 65.127-82.347 65.134-237.896 0.035-475.793 0.031-713.69-0.060-6.387-0.002-12.918-0.496-19.139-1.862-39.293-8.631-65.117-41.338-65.134-82.347-0.049-118.752-0.017-237.505-0.017-356.259zM546.382 350.6c0-3.433 0-5.919 0-8.406 0-103.348 0-206.697-0.001-310.045 0-7.797-0.005-7.819-7.945-7.872-17.939-0.117-35.878-0.214-53.818-0.314-1.898-0.012-3.798-0.003-6.306-0.003 0 108.92 0 217.253 0 326.333-108.505 0-216.404 0-324.491 0 0 22.874 0 44.999 0 67.853 108.2 0 215.898 0 324.394 0 0 3.378 0 6.037 0 8.696 0 102.569 0.052 205.138-0.131 307.706-0.010 5.835 1.33 7.663 7.373 7.557 18.126-0.312 36.265 0.064 54.399 0.167 1.918 0.011 3.836 0.001 6.375 0.001 0-108.038 0-215.594 0-323.916 108.714 0 216.801 0 324.998 0 0-22.906 0-45.039 0-67.757-108.279-0.001-216.016-0.001-324.848-0.001z"  horiz-adv-x="1025" />

    
    <glyph glyph-name="location" unicode="&#58886;" d="M512.607 893.599c-239.711 0-434.033-194.323-434.033-434.033 0-123.903 52.004-235.591 135.273-314.673h-0.306l194.663-202.524c21.258-25.939 54.398-42.702 91.744-42.702 35.027 0 66.357 14.752 87.662 37.979h0.035l212.132 196.597c90.025 79.53 146.861 195.756 146.861 325.321 0 239.711-194.322 434.033-434.030 434.033zM518.805 259.297c-106.156 0-192.214 86.058-192.214 192.214s86.058 192.214 192.214 192.214c106.158 0 192.218-86.058 192.218-192.214s-86.060-192.214-192.218-192.214z"  horiz-adv-x="1024" />

    
    <glyph glyph-name="huiyuanguanli" unicode="&#58895;" d="M1023.13984-73.51424c-3.35872 151.79776-94.90432 281.76384-225.60768 340.74624 60.416 46.8992 99.20512 120.13568 99.20512 202.42432 0 141.55776-114.81088 256.32768-256.57344 256.32768-46.4896 0-90.07104-12.41088-127.67232-34.03776C474.89024 713.61408 431.34976 725.984 384.86016 725.984c-141.7216 0-256.6144-114.76992-256.6144-256.32768 0-82.16576 38.7072-155.19744 98.87744-202.1376-129.92512-58.368-221.34784-186.81856-226.22208-337.05984C0.08192-72.81792 0-83.50848 0-83.50848 0-107.06048 19.0464-125.984 42.55744-125.984c23.51104 0 42.55744 19.0464 42.55744 42.47552l0.8192 1.35168c0.4096 156.01664 120.38144 283.8528 273.28512 296.79616l0 0c8.3968-0.86016 16.95744-1.31072 25.64096-1.31072s17.24416 0.53248 25.68192 1.31072l0 0c150.24128-12.82048 268.77952-136.6016 272.9984-289.05472-0.16384-1.67936 0.08192-9.17504 0.08192-9.17504 0-23.47008 19.0464-42.43456 42.55744-42.43456 23.42912 0 42.47552 18.96448 42.47552 42.43456 0 0-0.57344 8.15104-0.86016 10.15808-2.58048 115.58912-56.40192 218.5216-139.59168 287.08864 4.05504-0.16384 29.94176 0.16384 37.6832 0.90112 15.81056 1.55648 31.08864 4.5056 45.75232 8.84736l0-0.04096c100.47488-43.54048 224.6656-139.10016 227.1232-300.6464-0.08192-0.86016 0.08192-5.3248 0.08192-5.3248l0.08192-0.98304c0-23.47008 19.16928-42.43456 42.55744-42.43456 23.51104 0 42.55744 18.96448 42.55744 42.43456C1024-83.50848 1023.42656-75.52128 1023.13984-73.51424L1023.13984-73.51424zM384.24576 293.89696c-97.03424 0-175.7184 78.6432-175.7184 175.67744 0 97.03424 78.68416 175.7184 175.7184 175.7184 96.99328 0 175.67744-78.68416 175.67744-175.7184C559.9232 372.54016 481.23904 293.89696 384.24576 293.89696L384.24576 293.89696zM711.68 315.7696c2.58048 1.14688 5.03808 2.4576 7.45472 3.72736C716.71808 318.18624 714.26048 316.91648 711.68 315.7696L711.68 315.7696zM719.6672 319.74272c-2.78528-1.10592-5.5296-2.49856-8.06912-4.05504-16.54784-7.70048-34.65216-12.9024-53.69856-14.99136l-16.87552-0.90112c-0.57344-0.04096-1.024-0.08192-1.59744-0.08192-19.21024 0-37.6832 3.19488-54.96832 9.09312 35.59424 43.95008 56.97536 99.90144 56.97536 160.89088 0 61.35808-21.58592 117.63712-57.58976 161.792 17.36704 5.98016 36.08576 9.29792 55.58272 9.29792 94.24896 0 170.63936-76.34944 170.63936-170.51648C810.06592 405.0624 773.44768 348.49664 719.6672 319.74272L719.6672 319.74272z"  horiz-adv-x="1025" />

    
    <glyph glyph-name="bianji" unicode="&#58906;" d="M815.530015-147.469288 195.138352-147.469288c-32.114418 0-65.541739 14.130835-90.841961 39.431058-25.299199 25.300222-40.307008 57.850569-40.307008 89.964988L63.989383 626.780555c0 33.147958 15.633049 63.797002 43.11496 85.248569 24.100908 18.813484 55.6873 29.753651 88.035032 29.753651l336.698438 0c16.888645 0 30.579459-13.81054 30.579459-30.699186s-13.690814-30.699186-30.579459-30.699186L195.138352 680.384403c-33.180703 0-69.750597-21.060665-69.750597-53.603849l0-644.85482c0-33.530674 36.220946-67.997674 69.750597-67.997674l620.391662 0c32.54216 0 51.754734 34.81697 51.754734 67.997674L867.284749 314.546298c0 16.888645 13.81054 30.579459 30.699186 30.579459s30.699186-13.690814 30.699186-30.579459l0-332.620563c0-32.347732-10.015098-63.056128-28.827559-87.158059C878.403994-132.714236 848.678996-147.469288 815.530015-147.469288zM488.650199 261.786677c-9.912767 0-19.826558 3.78214-27.389814 11.346419-15.126512 15.126512-15.126512 39.650045 0 54.776557L870.335225 736.983469c15.126512 15.126512 39.652092 15.126512 54.778604 0s15.126512-39.650045 0-54.776557L516.03899 273.133096C508.475733 265.568816 498.561943 261.786677 488.650199 261.786677z"  horiz-adv-x="1024" />

    
    <glyph glyph-name="zan" unicode="&#59079;" d="M920.736 334.848c0-31.872-8.768-61.024-26.304-87.52 3.232-11.808 4.832-24.16 4.832-37.024 0-27.552-6.816-53.344-20.416-77.312 1.056-7.52 1.6-15.232 1.6-23.104 0-36.16-10.72-68.032-32.224-95.584 0.384-49.76-14.848-89.024-45.632-117.856s-71.392-43.232-121.888-43.232l-19.328 0-49.952 0c-34.368 0-68.288 4.032-101.76 12.064-33.472 8.064-72.224 19.776-116.256 35.2-41.536 14.304-66.24 21.472-74.08 21.472L164.736-78.048c-18.976 0-35.168 6.72-48.608 20.128C102.72-44.512 96-28.32 96-9.344L96 334.304c0 18.976 6.72 35.168 20.128 48.608s29.6 20.128 48.608 20.128l147.136 0c12.864 8.608 37.376 36.32 73.568 83.232 20.736 26.848 39.904 49.76 57.44 68.736 8.576 8.928 14.944 24.256 19.072 45.92 4.096 21.664 9.568 44.288 16.384 67.936 6.784 23.616 17.888 42.944 33.28 57.984 13.984 13.248 30.08 19.872 48.352 19.872 30.048 0 57.088-5.824 81.056-17.44 23.968-11.616 42.24-29.792 54.784-54.496 12.544-24.672 18.784-57.984 18.784-99.872 0-33.28-8.608-67.648-25.792-103.104l94.496 0c37.248 0 69.472-13.6 96.672-40.8C907.168 403.744 920.736 371.712 920.736 334.848zM223.264 0.864c6.784 6.784 10.208 14.848 10.208 24.16s-3.392 17.344-10.208 24.16-14.848 10.208-24.16 10.208c-9.312 0-17.344-3.392-24.16-10.208-6.816-6.816-10.208-14.848-10.208-24.16s3.392-17.376 10.208-24.16c6.784-6.816 14.848-10.208 24.16-10.208C208.384-9.344 216.448-5.952 223.264 0.864zM852.032 334.304c0 18.24-7.008 34.272-20.928 48.064-13.984 13.76-29.92 20.672-47.808 20.672l-188.992 0c0 20.736 8.608 49.312 25.792 85.632 17.184 36.32 25.792 65.056 25.792 86.176 0 35.072-5.76 61.024-17.184 77.856-11.456 16.832-34.368 25.248-68.704 25.248-9.312-9.344-16.128-24.544-20.416-45.632-4.288-21.152-9.76-43.584-16.384-67.392-6.624-23.808-17.28-43.392-31.968-58.784-7.872-8.224-21.664-24.544-41.344-48.864-1.408-1.792-5.536-7.168-12.352-16.096-6.816-8.96-12.448-16.288-16.928-22.016-4.48-5.728-10.656-13.344-18.528-22.816s-15.04-17.344-21.472-23.616c-6.432-6.272-13.344-12.608-20.672-19.072-7.328-6.432-14.496-11.264-21.472-14.496-6.976-3.232-13.344-4.832-19.072-4.832L302.176 334.336l0-343.648L319.36-9.312c4.64 0 10.272-0.544 16.896-1.6 6.624-1.088 12.544-2.24 17.728-3.488s12-3.232 20.416-5.92 14.656-4.736 18.784-6.144c4.096-1.44 10.464-3.68 19.072-6.72 8.608-3.072 13.76-4.928 15.552-5.664 75.52-26.112 136.736-39.2 183.648-39.2l64.96 0c68.704 0 103.104 29.888 103.104 89.664 0 9.312-0.896 19.328-2.688 30.08 10.752 5.728 19.264 15.104 25.504 28.192 6.272 13.056 9.408 26.208 9.408 39.456 0 13.216-3.232 25.568-9.664 37.024 18.976 17.92 28.448 39.232 28.448 63.904 0 8.928-1.792 18.88-5.344 29.824-3.584 10.912-8.064 19.392-13.44 25.472 11.456 0.384 21.024 8.8 28.704 25.28C848.192 307.296 852.032 321.792 852.032 334.304z"  horiz-adv-x="1024" />

    
    <glyph glyph-name="scan" unicode="&#58938;" d="M797.059 340.552h-565.821c-19.174 0-34.733 15.558-34.733 34.726 0 19.174 15.559 34.733 34.733 34.733h565.821c19.204 0 34.733-15.559 34.733-34.733 0-19.168-15.528-34.726-34.733-34.726v0zM860.442-76.211h-208.376c-19.204 0-34.733 15.528-34.733 34.733s15.528 34.733 34.733 34.733h208.376c19.174 0 34.733 15.558 34.733 34.726l-0 173.649c0 19.204 15.522 34.733 34.733 34.733 19.204 0 34.726-15.528 34.726-34.733v-173.65c-0.001-57.44-46.747-104.191-104.192-104.191v0zM339.493-76.211h-173.649c-57.438 0-104.184 46.751-104.184 104.191l-0 173.65c0 19.204 15.558 34.733 34.726 34.733 19.174 0 34.733-15.528 34.733-34.733v-173.65c0-19.168 15.59-34.726 34.726-34.726h173.65c19.174 0 34.733-15.528 34.733-34.733s-15.561-34.732-34.735-34.732v0zM96.385 514.202c-19.168 0-34.726 15.558-34.726 34.726v173.65c0 57.445 46.746 104.191 104.184 104.191h173.65c19.174 0 34.733-15.559 34.733-34.732 0-19.167-15.559-34.726-34.733-34.726h-173.649c-19.136 0-34.726-15.596-34.726-34.733v-173.65c0-19.168-15.559-34.726-34.733-34.726v0zM929.907 514.202c-19.212 0-34.733 15.558-34.733 34.726v173.65c0 19.137-15.559 34.733-34.733 34.733h-208.376c-19.204 0-34.733 15.559-34.733 34.726 0 19.174 15.528 34.732 34.733 34.732h208.376c57.445 0 104.191-46.746 104.191-104.191v-173.65c0.001-19.168-15.52-34.726-34.725-34.726v0zM929.907 514.202z"  horiz-adv-x="1024" />

    
    <glyph glyph-name="xiaofeijilu" unicode="&#58901;" d="M421.879523-211.999971c-26.008732 0-50.344987 10.273791-68.503315 28.909969l-77.855536 80.278922c-14.062464 14.506182-13.721142 37.579546 0.716776 51.710275 16.315189 15.939735 25.462617 37.238224 25.701543 60.072662 0.238925 22.766174-8.39652 44.269456-24.302123 60.516381-31.913602 32.698643-88.163459 33.381287-120.725573 1.501817-6.962968-6.792307-17.543948-10.342055-26.076997-10.444452-9.727676 0.170661-19.045764 4.095864-25.803939 11.127096l-77.75314 80.176526C9.460215 169.905155-0.267461 194.070748 0.005596 219.669894c0.30719 25.633278 10.546849 49.559947 28.909969 67.513481L536.222375 784.31879c36.86277 35.838804 99.734273 35.019631 135.47068-1.501817l77.923801-80.347187c14.062464-14.506182 13.721142-37.613678-0.716776-51.710275-16.315189-15.973867-25.428485-37.306488-25.701543-60.106794-0.238925-22.800306 8.39652-44.303589 24.26799-60.618777 31.913602-32.596246 88.163459-33.313022 120.827969-1.433552 6.962968 6.792307 16.793039 9.591147 26.076997 10.444452 9.727676-0.136529 19.045764-4.164128 25.769807-11.127096l77.719008-80.210658c17.748741-17.987666 27.476417-42.050864 27.271624-67.615878-0.238925-25.599146-10.478584-49.662343-28.77344-67.581745l-507.545734-497.237811C470.756825-202.34056 447.000818-211.999971 421.879523-211.999971L421.879523-211.999971zM350.577368-74.993342l55.328288-57.06903c8.294124-8.464785 23.141628-8.771974 31.811206-0.273058l507.409206 497.06715c4.334789 4.232392 6.758175 9.932469 6.826439 15.973867 0.034132 5.973134-2.218593 11.570813-6.416853 15.803206L890.207366 453.611957c-24.404519-14.676843-52.427051-22.493116-81.575945-22.493116-43.108962 0-83.350819 16.9637-113.489547 47.75094-29.626745 30.275257-45.634744 70.278189-45.156893 112.60211 0.375454 29.968067 8.908503 58.502581 24.643445 83.146026l-55.36242 57.034898c-8.225859 8.39652-23.209892 8.635446-31.87947 0.204793L80.079726 234.824589c-4.368921-4.266525-6.792307-9.932469-6.860571-15.939735-0.034132-6.007267 2.218593-11.639078 6.416853-15.973867l55.294156-57.000766c24.404519 14.676843 52.392919 22.493116 81.50768 22.493116 43.108962 0 83.453216-16.9637 113.557812-47.819205 29.592613-30.275257 45.634744-70.244057 45.122761-112.567978C374.742962-21.849515 366.209914-50.418161 350.577368-74.993342L350.577368-74.993342zM334.978955 215.574031c-9.386354 0-18.738575 3.583881-25.872204 10.71751-14.301389 14.301389-14.301389 37.443017 0 51.77854l204.383581 204.451846c14.301389 14.301389 37.477149 14.301389 51.812672 0 14.267257-14.267257 14.267257-37.443017 0-51.77854l-204.417714-204.417714C353.751662 219.192044 344.365308 215.574031 334.978955 215.574031L334.978955 215.574031zM444.406771 106.21448c-9.386354 0-18.738575 3.583881-25.872204 10.71751-14.301389 14.335521-14.301389 37.477149 0 51.77854l204.417714 204.451846c14.301389 14.301389 37.443017 14.301389 51.77854 0 14.301389-14.267257 14.301389-37.443017 0-51.77854l-204.417714-204.451846C463.077081 109.832492 453.724861 106.21448 444.406771 106.21448L444.406771 106.21448zM444.406771 106.21448"  horiz-adv-x="1026" />

    
    <glyph glyph-name="yuangou" unicode="&#58909;" d="M51.2 384c0 254.499 206.301 460.8 460.8 460.8s460.8-206.301 460.8-460.8c0-254.499-206.301-460.8-460.8-460.8s-460.8 206.301-460.8 460.8zM0 384c0-282.772 229.228-512 512-512s512 229.228 512 512c0 282.772-229.228 512-512 512-282.772 0-512-229.228-512-512zM704.104 526.761c-13.876 14.015-36.335 14.015-50.454 0l-200.817-203.906-83.23 83.864c-13.624 14.015-36.335 14.015-49.95 0-13.624-14.024-13.624-36.708 0.503-50.471l105.698-107.32 1.77-2.031c14.119-13.763 36.326-13.763 50.445 0l226.035 228.89c14.128 14.275 14.128 36.708 0 50.974z"  horiz-adv-x="1024" />

    
    <glyph glyph-name="arrow-left" unicode="&#59048;" d="M402.752 749.248l-320-320c-24.992-24.992-24.992-65.504 0-90.496l320-320c24.992-24.992 65.504-24.992 90.496 0s24.992 65.504 0 90.496l-210.752 210.752h613.504c35.36 0 64 28.64 64 64s-28.64 64-64 64h-613.504l210.752 210.752c12.48 12.512 18.752 28.864 18.752 45.248s-6.24 32.768-18.752 45.248c-24.992 24.992-65.504 24.992-90.496 0z"  horiz-adv-x="1024" />

    
    <glyph glyph-name="music" unicode="&#59155;" d="M676.212364 306.64145499999995c-12.055273 5.026909-27.089455 7.540364-42.635636 7.540364-9.541818 0-27.601455-5.538909-39.144727-11.543273-21.550545-11.543273-34.629818-30.114909-34.629818-49.664 0-10.519273 4.514909-22.062545 11.031273-30.114909 8.517818-9.541818 22.062545-14.522182 40.122182-14.522182 21.550545 0 44.125091 9.541818 62.184727 25.6 16.570182 15.546182 25.088 35.607273 25.088 60.695273L698.228364 611.653818 406.807273 540.904727l0-304.965818c-10.053818 4.514909-24.064 7.028364-39.610182 7.028364-9.541818 0-19.549091-2.001455-30.580364-6.516364-27.601455-11.031273-44.637091-31.604364-44.637091-54.178909 0-10.519273 4.514909-22.062545 11.031273-30.114909 8.517818-9.541818 22.574545-14.522182 40.634182-14.522182 29.602909 0 66.234182 21.550545 77.730909 46.638545 4.002909 9.029818 7.540364 26.577455 7.540364 39.144727L428.916364 467.688727l247.296 61.719273L676.212364 306.64145499999995zM1024 384c0 282.763636-229.236364 512-512 512S0 666.763636 0 384c0-282.763636 229.236364-512 512-512S1024 101.23636399999998 1024 384zM46.545455 384C46.545455 641.070545 254.929455 849.454545 512 849.454545c257.070545 0 465.454545-208.384 465.454545-465.454545s-208.384-465.454545-465.454545-465.454545C254.929455-81.45454500000005 46.545455 126.92945499999996 46.545455 384z"  horiz-adv-x="1024" />

    
    <glyph glyph-name="biaoqinghighlightcopy3" unicode="&#58913;" d="M0 823.177351C0 863.396189 32.910538 896 72.822649 896L951.177351 896C991.396191 896 1024 863.089462 1024 823.177351L1024-55.177351C1024-95.396191 991.089463-128 951.177351-128L72.822649-128C32.603811-128 0-95.089463 0-55.177351L0 823.177351ZM731.428571 420.571429C771.824256 420.571429 804.571429 453.318601 804.571429 493.714286 804.571429 534.10997 771.824256 566.857143 731.428571 566.857143 691.032887 566.857143 658.285714 534.10997 658.285714 493.714286 658.285714 453.318601 691.032887 420.571429 731.428571 420.571429ZM292.571429 420.571429C332.967113 420.571429 365.714286 453.318601 365.714286 493.714286 365.714286 534.10997 332.967113 566.857143 292.571429 566.857143 252.175744 566.857143 219.428571 534.10997 219.428571 493.714286 219.428571 453.318601 252.175744 420.571429 292.571429 420.571429ZM758.857143 310.857143C758.857143 326.005526 746.576955 338.285714 731.428571 338.285714L292.571429 338.285714C277.423047 338.285714 265.142857 326.005526 265.142857 310.857143 265.142857 174.521706 375.664563 64 512 64 648.335437 64 758.857143 174.521706 758.857143 310.857143Z"  horiz-adv-x="1024" />

    
    <glyph glyph-name="x" unicode="&#58927;" d="M859.147 136.17l-99.178-99.178-247.852 247.898-247.852-247.898-99.178 99.178 247.898 247.852-247.898 247.852 99.178 99.178 247.852-247.898 247.852 247.898 99.178-99.178-247.898-247.852 247.898-247.852z"  horiz-adv-x="1025" />

    
    <glyph glyph-name="xiaofeizongjie" unicode="&#58976;" d="M997.052632-128 26.947368-128c-14.874947 0-26.947368 12.045474-26.947368 26.947368s12.072421 26.947368 26.947368 26.947368l970.105263 0c14.901895 0 26.947368-12.045474 26.947368-26.947368S1011.954526-128 997.052632-128zM943.157895-20.210526l-161.684211 0c-29.749895 0-53.894737 24.144842-53.894737 53.894737L727.578947 545.684211c0 29.749895 24.144842 53.894737 53.894737 53.894737l161.684211 0c29.749895 0 53.894737-24.144842 53.894737-53.894737l0-512C997.052632 3.934316 972.907789-20.210526 943.157895-20.210526zM592.842105-20.210526l-161.684211 0c-29.749895 0-53.894737 24.144842-53.894737 53.894737L377.263158 842.105263c0 29.749895 24.144842 53.894737 53.894737 53.894737l161.684211 0c29.749895 0 53.894737-24.144842 53.894737-53.894737l0-808.421053C646.736842 3.934316 622.592-20.210526 592.842105-20.210526zM242.526316-20.210526 80.842105-20.210526c-29.749895 0-53.894737 24.144842-53.894737 53.894737L26.947368 734.315789c0 29.749895 24.144842 53.894737 53.894737 53.894737l161.684211 0c29.749895 0 53.894737-24.144842 53.894737-53.894737l0-700.631579C296.421053 3.934316 272.276211-20.210526 242.526316-20.210526z"  horiz-adv-x="1024" />

    
    <glyph glyph-name="zv1" unicode="&#58904;" d="M871.20657 13.844565 159.82559 13.844565c-13.71435 0-27.028587 2.696412-39.579437 8.001231-12.107759 5.124717-22.975271 12.44852-32.30373 21.775956-9.327436 9.328459-16.657378 20.201088-21.775956 32.30987-5.313006 12.545734-8.001231 25.865087-8.001231 39.579437L58.165236 623.637846c0 13.71435 2.688225 27.028587 8.001231 39.579437 5.118578 12.107759 12.449543 22.975271 21.775956 32.30373 9.329483 9.327436 20.195971 16.657378 32.30373 21.775956 12.550851 5.313006 25.865087 8.002254 39.579437 8.002254l711.38098 0c13.71435 0 27.028587-2.689249 39.579437-8.002254 12.108782-5.118578 22.975271-12.44852 32.30373-21.775956 9.327436-9.328459 16.657378-20.195971 21.775956-32.30373 5.311982-12.550851 8.001231-25.865087 8.001231-39.579437l0-508.126786c0-13.713326-2.689249-27.033703-8.001231-39.579437-5.118578-12.108782-12.44852-22.981411-21.775956-32.30987-9.328459-9.327436-20.194948-16.651238-32.30373-21.775956C898.235157 16.539954 884.92092 13.844565 871.20657 13.844565M159.82559 674.412252c-27.997658 0-50.774407-22.776749-50.774407-50.774407l0-508.126786c0-28.002774 22.776749-50.7785 50.774407-50.7785l711.38098 0c27.996634 0 50.773384 22.775726 50.773384 50.7785L921.979954 623.637846c0 27.997658-22.776749 50.774407-50.773384 50.774407L159.82559 674.412252zM185.234283 547.41893l203.2501 0 0-50.816363-203.2501 0 0 50.816363ZM667.212526 210.750167c-21.097504 0-41.577954 4.137227-60.869323 12.297071-18.62008 7.880481-35.344996 19.147082-49.694819 33.503045-14.3488 14.349823-25.622564 31.067576-33.496905 49.688679-8.15882 19.293415-12.296047 39.772842-12.296047 60.868299 0 21.099551 4.137227 41.580001 12.296047 60.873416 7.874341 18.619056 19.148106 35.344996 33.496905 49.692772 14.349823 14.350846 31.074739 25.624611 49.694819 33.497928 19.292392 8.159844 39.771819 12.297071 60.869323 12.297071 21.096481 0 41.576931-4.137227 60.870346-12.297071 18.62008-7.874341 35.338856-19.147082 49.688679-33.497928 14.355963-14.347776 25.622564-31.073716 33.503045-49.692772 8.159844-19.293415 12.297071-39.773865 12.297071-60.873416 0-21.095457-4.137227-41.575908-12.297071-60.868299-7.880481-18.62008-19.147082-35.337833-33.503045-49.688679-14.3488-14.355963-31.067576-25.622564-49.688679-33.503045C708.789457 214.887394 688.309006 210.750167 667.212526 210.750167M667.212526 472.586594c-28.172643 0-54.660924-10.975982-74.583672-30.892591-19.917632-19.921725-30.894637-46.411029-30.894637-74.586742 0-28.17162 10.978029-54.653761 30.894637-74.576509 19.922748-19.922748 46.411029-30.891568 74.583672-30.891568s54.661947 10.969842 74.578556 30.891568c19.922748 19.922748 30.892591 46.404889 30.892591 74.576509 0 28.175713-10.970866 54.663994-30.892591 74.586742C721.868333 461.610612 695.385169 472.586594 667.212526 472.586594M842.28896 13.844565 495.790318 13.844565l-3.1262 21.843494c-1.193175 8.377808-1.805112 16.931624-1.805112 25.423019 0 24.041556 4.718465 47.381124 14.017248 69.362764 8.971325 21.218254 21.818935 40.274262 38.173414 56.629765s35.406394 29.196972 56.630788 38.174438c21.98164 9.29776 45.315068 14.010085 69.362764 14.010085 24.041556 0 47.374984-4.712325 69.362764-14.010085 21.218254-8.976442 40.269146-21.818935 56.623625-38.174438s29.203112-35.410488 38.180578-56.629765c9.29776-21.98164 14.010085-45.321208 14.010085-69.362764 0-8.491395-0.605797-17.045211-1.805112-25.423019L842.28896 13.844565zM541.796118 64.732559l254.487042 0c-0.908696 32.642444-14.046924 63.202461-37.235043 86.383416-24.041556 24.047696-56.005548 37.284161-90.00592 37.284161-34.005488 0-65.971527-13.236466-90.01206-37.284161C555.842019 127.93502 542.703791 97.375004 541.796118 64.732559M185.234283 445.795415l254.064416 0 0-50.815339-254.064416 0 0 50.815339ZM185.234283 344.163713l152.434761 0 0-50.808176-152.434761 0 0 50.808176Z"  horiz-adv-x="1024" />

    
    <glyph glyph-name="mendian" unicode="&#58884;" d="M810.27-29.983h-2.877v545.35h-0.436v285.657c0 28.679-23.242 51.939-51.925 51.939h-493.406c-28.689 0-51.938-23.26-51.938-51.939v-831.007h-103.881v-51.915h807.121v51.915h-102.658zM472.621 161.54h-103.881v103.883h103.881v-103.883zM472.621 351.445h-103.881v103.863h103.881v-103.863zM472.621 531.602h-103.881v103.878h103.881v-103.878zM651.153 161.54h-103.878v103.883h103.878v-103.883zM651.153 351.445h-103.878v103.863h103.878v-103.863zM651.153 531.602h-103.878v103.878h103.878v-103.878z"  horiz-adv-x="1024" />

    
    <glyph glyph-name="tianjiatupian" unicode="&#59043;" d="M360.518 382.447c55.747 0 101.101 45.354 101.101 101.101 0 55.748-45.354 101.102-101.101 101.102-55.748 0-101.102-45.354-101.102-101.102C259.416 427.801 304.77 382.447 360.518 382.447zM360.518 534.649c28.177 0 51.101-22.924 51.101-51.102 0-28.177-22.924-51.101-51.101-51.101-28.177 0-51.102 22.924-51.102 51.101C309.416 511.725 332.34 534.649 360.518 534.649zM839.626 733.594 309 733.594c-13.807 0-25-11.193-25-25s11.193-25 25-25l530.626 0c12.337 0 22.374-10.04 22.374-22.379l0-294.702c-46.772 34.405-113.737 69.384-192.647 69.384-86.551 0-166.786-63.072-244.405-124.088-48.524-38.136-108.914-85.597-141.538-85.597-49.499 0-94.329 39.633-106.889 51.78L162 292.035 162 536.594c0 13.807-11.193 25-25 25s-25-11.193-25-25l0-429.81c0-39.91 32.469-72.379 72.378-72.379l655.248 0c39.907 0 72.374 32.469 72.374 72.379L912 661.215C912 701.125 879.533 733.594 839.626 733.594zM839.626 84.405 184.378 84.405c-12.339 0-22.378 10.039-22.378 22.379L162 224.355c27.07-21.471 70.872-48.142 121.41-48.142 49.92 0 109.43 46.769 172.465 96.309 70.907 55.739 144.227 113.376 213.478 113.376 75.358 0 139.291-39.476 179.653-72.592L862 302.644l0-195.86C862 94.444 851.963 84.405 839.626 84.405zM112 634.094c0-13.807 11.193-25 25-25s25 11.193 25 25l0 49.5 49.5 0c13.807 0 25 11.193 25 25s-11.193 25-25 25L162 733.594l0 49.5c0 13.807-11.193 25-25 25s-25-11.193-25-25l0-49.5L62.5 733.594c-13.807 0-25-11.193-25-25s11.193-25 25-25L112 683.594 112 634.094z"  horiz-adv-x="1024" />

    
    <glyph glyph-name="message" unicode="&#59010;" d="M511.825-105.85c-9.134 0-18.092 3.468-25.129 10.579l-106.131 107.305c-13.9 14.024-13.9 36.533 0 50.557 13.875 14.050 36.135 14.050 50.009 0l81.251-82.1 81.203 82.1c6.662 6.737 15.622 10.581 25.103 10.581h247.698c19.565 0 35.386 15.971 35.386 35.786v572.256c0 19.614-15.821 35.785-35.386 35.785h-707.659c-19.389 0-35.385-16.171-35.385-35.785v-572.256c0-19.814 15.996-35.786 35.385-35.786h106.157c19.614 0 35.385-15.945 35.385-35.759s-15.771-35.759-35.385-35.759h-106.157c-58.592 0-106.13 48.061-106.13 107.305v572.256c0 59.242 47.538 107.304 106.131 107.304h707.659c58.595 0 106.132-48.063 106.132-107.304v-572.256c0-59.244-47.538-107.305-106.132-107.305h-233.225l-95.675-96.924c-6.863-6.911-15.997-10.579-25.105-10.579v0zM511.825-105.85zM328.035 358.302c-27.674 0-50.134 22.659-50.134 50.583s22.46 50.584 50.134 50.584 50.133-22.66 50.133-50.584-22.459-50.583-50.133-50.583v0zM328.035 358.302zM528.545 358.302c-27.701 0-50.159 22.659-50.159 50.583s22.457 50.584 50.159 50.584c27.65 0 50.108-22.66 50.108-50.584s-22.46-50.583-50.108-50.583v0zM528.545 358.302zM729.203 358.302c-27.675 0-50.134 22.659-50.134 50.583s22.459 50.584 50.134 50.584 50.134-22.66 50.134-50.584-22.659-50.583-50.134-50.583v0zM729.203 358.302z"  horiz-adv-x="1024" />

    
    <glyph glyph-name="yulan" unicode="&#59474;" d="M480.384 576.128c-123.712 0-224-100.288-224-224s100.288-224 224-224 224 100.288 224 224S604.096 576.128 480.384 576.128zM480.384 192.128c-88.384 0-160 71.616-160 160s71.616 160 160 160 160-71.616 160-160S568.768 192.128 480.384 192.128zM924.096 464.704c-108.352 146.496-266.944 239.104-444.032 239.104S144.448 611.2 36.096 464.704c-47.872-64.704-47.872-160.832 0-225.472 108.352-146.496 266.944-239.104 444.032-239.104s335.616 92.608 444.032 239.104C971.968 303.872 971.968 400 924.096 464.704zM875.968 292.288C775.488 147.264 630.784 64 478.976 64c-151.68 0-296.384 83.264-396.928 228.224-23.936 34.56-23.936 84.736 0 119.296 100.544 145.088 245.248 228.224 396.928 228.224 151.808 0 296.512-83.2 396.992-228.224C899.904 377.024 899.904 326.784 875.968 292.288z"  horiz-adv-x="1024" />

    
    <glyph glyph-name="jifen" unicode="&#59014;" d="M513.246387 1.627313c-17.256012 0-33.955346 7.18054-45.813419 19.695574L82.926688 445.423955c-19.632129 20.719904-22.89443 52.172243-7.92653 76.481905l132.269489 214.957747c11.617595 18.823718 31.692816 30.023804 53.752228 30.023804l502.515998 0c21.806655 0 42.425252-11.55415 53.815673-30.150694l132.433218-216.183667c14.854313-24.284079 11.579733-55.673997-7.976672-76.342736l-382.736984-422.861844c-11.858072-12.527314-28.557406-19.721157-45.813419-19.721157L513.246387 1.627313zM147.007145 490.718557l366.226962-404.809699 364.482225 403.583778L755.38417 689.217447l-486.234173 0L147.007145 490.718557zM643.948171 439.16746 374.251729 439.16746c-21.452591 0-38.835494 17.381879-38.835494 38.835494s17.381879 38.835494 38.835494 38.835494l269.695419 0c21.452591 0 38.835494-17.381879 38.835494-38.835494S665.400762 439.16746 643.948171 439.16746z"  horiz-adv-x="1024" />

    
    <glyph glyph-name="gongzuotai-copy" unicode="&#58880;" d="M909.444 831.36h-793.6c-28.278 0-51.2-24.553-51.2-54.84v-507.278c0-30.289 22.922-54.842 51.2-54.842h793.6c28.278 0 51.2 24.553 51.2 54.842l-0 507.278c0 30.287-22.922 54.84-51.2 54.84zM832.66 327.68h-639.999v56.32h639.999v-56.32zM384.652 158.079l-128.013-222.719h512l-127.978 222.719z"  horiz-adv-x="1024" />

    
    <glyph glyph-name="arrow-right" unicode="&#59064;" d="M621.494 18.077l320.533 320.533c25.004 25.004 25.004 65.611 0 90.616l-320.533 320.44c-25.005 25.004-65.611 25.004-90.616 0s-25.004-65.611 0-90.616l211.027-211.027h-614.374c-35.436 0-64.107-28.669-64.107-64.109 0-35.437 28.669-64.109 64.107-64.109h614.374l-211.027-211.12c-12.501-12.501-18.8-28.952-18.8-45.307 0-16.451 6.203-32.806 18.8-45.307 25.004-25.002 65.61-25.002 90.616 0z"  horiz-adv-x="1024" />

    
    <glyph glyph-name="huiyuan" unicode="&#58885;" d="M45.963 561.439c1.027 2.857 2.048 5.707 3.069 8.574 7.761 23.276 28.175 38.989 53.084 40.627 22.665 1.633 45.334-11.633 55.946-32.467 10.814-21.234 7.755-46.345-7.968-64.925-1.835-2.043-3.67-4.080-5.718-6.538 43.904-26.951 87.595-53.488 131.083-80.227 16.531-10.207 33.079-20.415 49.611-30.223 9.393-5.51 16.734-3.877 21.845 5.309 50.015 91.062 100.041 182.326 150.47 274.404-21.845 11.026-35.936 27.973-37.165 53.084-0.809 17.558 5.309 32.665 17.765 44.919 24.702 24.095 65.328 21.845 86.972-4.899 24.921-30.627 15.925-66.355-23.68-93.301 12.862-23.68 25.931-47.372 38.994-71.052 36.346-66.147 72.483-132.099 108.822-198.246 8.383-15.319 13.692-16.745 28.59-7.766 56.137 34.303 112.302 68.813 168.438 103.104 2.654 1.644 5.111 3.277 8.164 5.111-11.633 11.638-18.994 24.702-19.797 40.834-1.644 30.218 19.186 56.765 48.377 61.664 30.419 5.309 58.594-12.048 67.584-41.446 0.618-2.244 1.638-4.691 2.452-6.942v-20.415c-9.601-30.622-29.207-48.382-62.893-48.585-1.218-3.478-2.452-6.942-3.468-10.41-32.883-112.705-65.749-225.613-98.626-338.314-4.276-14.691-9.393-18.579-24.287-18.579h-567.574c-15.936 0-20.83 3.686-25.122 18.579-26.745 91.467-53.286 183.135-80.030 274.612-7.149 24.691-14.494 49.409-21.845 74.313-25.117 0-44.1 10.005-55.946 31.648-2.857 5.309-4.691 11.234-6.935 16.951-0.213 7.11-0.213 13.855-0.213 20.595v0zM519.231 50.875h265.219c23.692 0 42.467-13.905 45.121-32.555 2.666-18.809-12.244-35.924-35.117-40.162-3.271-0.683-6.729-0.835-10.005-0.835h-530.64c-20.207 0-37.158 10-43.079 25.078-6.123 15.101-0.41 32.206 15.723 40.845 8.367 4.418 19.393 7.455 29.197 7.455 87.993 0.508 175.783 0.175 263.581 0.175v0z"  horiz-adv-x="1024" />

    
    <glyph glyph-name="erji" unicode="&#58975;" d="M832 176.426v-5.76c0-96.64-83.84-176-192-189.44v29.44c0 17.92-14.080 31.999-32 32h-128c-17.92 0-31.999-14.080-32-32v-64c0-17.92 14.080-31.999 32-32h128c159.361 0 288 114.56 288 256v5.76M896 176.426c37.12 13.44 64 48.64 64 90.24v128c0 41.601-26.88 76.8-64 90.24v5.76c0 211.841-172.16 384.001-384 384s-384.001-172.16-384-384v-5.76c-37.12-13.44-64-48.64-64-90.24v-128c0-53.121 42.88-96 96-96s96 42.88 96 96v128c0 41.601-26.88 76.8-64 90.24v5.76c0 176.64 143.36 320 320 320s320-143.36 320-320v-5.76c-37.12-13.44-64-48.64-64-90.24v-128c0-41.601 26.88-76.8 64-90.24M192 266.666c0-17.92-14.080-31.999-32-32s-31.999 14.080-32 32v128c0 17.92 14.080 31.999 32 32s31.999-14.080 32-32v-128zM896 266.667c0-17.92-14.080-31.999-32-32s-31.999 14.080-32 32v128c0 17.92 14.080 31.999 32 32s31.999-14.080 32-32v-128z"  horiz-adv-x="1024" />

    
    <glyph glyph-name="wenzi" unicode="&#58950;" d="M710.8735999999999 772.4757333333334l9.28-198.82666666666668-27.733333333333334 0c-12.373333333333333 64.74666666666667-30.826666666666668 106.34666666666665-55.46666666666667 124.80000000000001-21.546666666666667 18.453333333333333-66.34666666666666 27.733333333333334-134.08 27.733333333333334l-64.74666666666667 0 0-605.76c0-43.2 6.1866666666666665-70.93333333333334 18.453333333333333-83.2 15.36-12.373333333333333 47.78666666666666-20.053333333333335 97.06666666666666-23.146666666666665l0-23.146666666666665-346.77333333333337 0L206.87359999999995 14.18240000000003c49.28 2.9866666666666664 80.10666666666665 12.266666666666666 92.48 27.733333333333334 12.266666666666666 9.28 18.453333333333333 40 18.453333333333333 92.48l0 591.8933333333333L253.1669333333333 726.2890666666666c-67.84 0-112.53333333333333-9.28-134.08-27.733333333333334-24.746666666666666-18.453333333333333-43.2-60.16-55.46666666666667-124.80000000000001l-27.733333333333334 0 9.28 198.82666666666668L710.8735999999999 772.5824zM990.7669333333333 418.55573333333336l5.12-110.93333333333334-15.466666666666667 0c-6.933333333333334 36.16-17.173333333333336 59.30666666666666-30.933333333333334 69.65333333333334-12.053333333333335 10.346666666666666-37.013333333333335 15.466666666666667-74.88 15.466666666666667l-36.16 0L838.4469333333334 54.715733333333446c0-24.10666666666667 3.4133333333333336-39.57333333333334 10.346666666666666-46.50666666666667 8.639999999999999-6.933333333333334 26.666666666666668-11.2 54.18666666666666-12.906666666666666l0-12.906666666666666L709.4869333333334-17.604266666666717l0 12.906666666666666c27.52 1.7066666666666668 44.69333333333333 6.826666666666667 51.626666666666665 15.466666666666667 6.826666666666667 5.12 10.346666666666666 22.293333333333333 10.346666666666666 51.626666666666665l0 330.34666666666664L735.3002666666667 392.74240000000003c-37.86666666666667 0-62.82666666666667-5.12-74.88-15.466666666666667-13.76-10.346666666666666-24.10666666666667-33.6-30.933333333333334-69.65333333333334l-15.466666666666667 0 5.12 110.93333333333334L990.7669333333333 418.55573333333336z"  horiz-adv-x="1024" />

    
    <glyph glyph-name="rili1" unicode="&#58968;" d="M1039.827449 493.120835c0 76.838676 0.339171 152.427342-0.185997 228.005067-0.183262 26.203706-11.643964 48.140421-30.065881 66.712776-32.286905 32.549489-72.47048 30.607461-114.976283 27.762799 0-8.82392 0.010941-16.463477-0.002735-24.105769-0.10394-59.237335 0.065646-118.474669-0.410288-177.712004-0.413023-51.302371-35.183536-85.140163-86.496848-85.066311-40.50907 0.060176-76.184951 38.454896-76.781235 83.939388-0.590814 45.08241-0.060176 90.183966-0.032823 135.274582 0.013676 22.087153 0 44.177042 0 67.273502-141.226488 0-279.756019 0-419.059625 0 0-32.005174 0.300878-62.960011-0.073852-93.906643-0.500551-40.963121 0.445846-82.082152-2.882955-122.831924-3.465563-42.396393-37.992639-70.025165-80.629734-69.171767-40.850976 0.815105-77.194258 32.842161-79.147228 72.377481-1.977587 39.989372-1.605592 80.104566-1.947499 120.170525-0.268055 31.261186-0.054705 62.525106-0.054705 94.065288-20.506178 0-39.923726 2.502755-58.455053-0.484139-49.825335-8.027962-87.708564-44.094984-86.980987-97.336648 0.757665-55.558422-0.856134-111.146931-1.334803-166.721764-0.164115-19.05923-0.027353-38.121196-0.027353-58.244438C347.855403 493.120835 693.790824 493.120835 1039.827449 493.120835zM1040.751964 106.274262c0.062911 81.532367 0.024617 163.061998 0.027353 244.594365 0.002735 30.839957 0.002735 61.679914 0.002735 93.009481-20.322916 0-39.073063 0-57.743887 0-0.402082-2.439844-0.81237-3.76097-0.81237-5.082097-0.134027-131.685932 0.005471-263.369129-0.667401-395.052326-0.076587-15.166968-2.212818-31.255715-7.609469-45.293024-16.783501-43.635462-51.865833-63.70947-96.745834-64.803571-73.291055-1.786119-146.63408-1.30745-219.957958-1.652092-44.628358-0.207879-89.262187-0.27626-133.89328-0.21335-66.48028 0.090263-132.960559 0.284466-199.443574 0.560726-54.647583 0.229761-109.341665-0.525168-163.942749 1.30198-59.125189 1.980322-97.902845 42.095515-99.839403 101.319174-1.219922 37.308826-1.334803 74.661416-1.36489 111.994859-0.060176 80.1538 0.262584 160.304865 0.407552 240.461401 0.038294 18.851351 0.005471 37.699967 0.005471 56.950665-20.752351 0-38.482249 0-58.950133 0 0-8.747333 0-17.144554 0-25.53904 0.002735-68.345721-0.005471-136.691442 0.013676-205.034427 0.019147-76.548739-0.637314-153.108419 0.289937-229.646217 0.872545-71.748373 40.902946-110.947258 112.574732-112.060505 23.679069-0.369259 47.37455 0.289937 71.061825 0.273525 123.901407-0.10394 247.800079-0.391141 371.701487-0.391141 126.633923 0.002735 253.267847 0.393876 379.904505 0.350112 57.957237-0.021882 102.618418 41.026032 104.366244 98.657774C1041.506893 16.046532 1040.719141 61.175441 1040.751964 106.274262zM404.275429 170.752338c29.021015 19.551575 58.219821 38.454896 78.061333 68.851742 25.722302 39.409499 15.041146 100.419276-23.63257 126.989506-46.192922 31.737119-128.39269 32.880454-175.302247 1.373096-27.98709-18.796646-45.033175-44.48886-43.364672-82.125916 19.808689 0 38.452161 0.962808 56.934253-0.317289 13.8349-0.960073 23.211341 0.582608 26.537407 16.592034 1.19257 5.741292 7.587587 11.460702 13.025266 15.057558 17.253964 11.419674 36.422605 11.43882 54.808963 3.993467 6.04217-2.44805 11.903813-10.295485 13.911487-16.873764 7.434413-24.354676-5.445885-42.442892-22.245798-57.445745-41.961488-37.481147-84.530202-74.283951-127.030535-111.155137-23.79395-20.642941-31.326832-45.651342-22.037919-76.220509 85.21675 0 170.10527 0 255.617427 0 0 23.369986 0 45.741605 0 70.320572-45.73887 0-90.326199 0-134.918999 0-0.391141 1.176158-0.779547 2.346846-1.173423 3.523004 3.118186 2.902101 5.960112 6.184403 9.398323 8.632453C376.561864 151.701314 390.331118 161.35675 404.275429 170.752338zM700.951711 104.50182c-25.503482-9.007182-44.15516-1.868177-59.9485 23.011668-2.680546 4.223228-4.912511 8.761009-7.861112 12.781829-1.756031 2.39061-4.472136 5.749498-6.805305 5.787791-24.313648 0.423964-48.635501 0.262584-74.251128 0.262584 8.82392-38.27984 27.738182-67.227003 63.887261-80.848554 53.394838-20.115037 105.928072-17.078908 156.705275 10.336514 28.460288 15.366641 41.433585 39.945608 43.449465 70.903181 2.032292 31.291273-9.918021 55.941357-37.773819 71.816755-7.431677 4.236904-15.060293 8.129166-24.524262 13.208528 5.421268 3.635149 9.414735 6.58922 13.66258 9.119327 49.305638 29.390274 40.197251 88.898398 9.122063 119.445683-17.53843 17.240288-39.819786 23.512219-62.741191 27.401746C671.58332 394.908906 630.962104 390.663797 596.249032 362.717736c-18.359006-14.781297-31.510093-33.476739-32.866778-59.833619 17.437226 0 33.679148 0.27626 49.910128-0.090263 11.994076-0.273525 21.034081 4.007143 27.612361 14.195954 11.27197 17.472784 27.642448 22.212975 47.284287 17.984276 18.616119-4.007143 28.159411-14.316305 30.971249-33.381005 2.716104-18.413711-5.207918-36.170961-21.414281-42.998148-10.238045-4.316226-21.884745-5.191507-32.664369-8.397221-3.04707-0.908103-7.363296-4.46393-7.513735-7.015919-0.76587-12.973296-0.355583-26.017709-0.355583-38.958182 10.150517-1.271892 18.741941-2.22923 27.295071-3.440946 30.183497-4.272462 43.23338-16.105159 45.859221-41.439055C732.874828 135.142103 720.060176 111.249684 700.951711 104.50182zM168.08102 637.864856c-0.185997-38.298987 23.791215-64.305755 61.406389-65.241211 35.254652-0.878016 60.531108 24.732141 60.916779 62.355521 0.330965 32.344345 0.068381 64.694161 0.087528 97.043976 0.019147 34.168758 0.648255 68.353927-0.16138 102.509008-0.806899 34.045671-29.406685 62.123024-60.993366 61.439212-34.806071-0.752194-61.619738-29.781415-61.420065-65.44909C168.283429 766.304045 168.401044 702.083083 168.08102 637.864856zM756.69066 614.894217c4.723779-27.478333 33.033628-44.729562 63.16242-42.503068 30.161615 2.226494 52.560586 21.014935 53.050196 50.167242 1.252745 75.003322 0.782282 150.050408-0.273525 225.064672-0.232496 16.449801-10.577216 29.803297-25.098665 38.433014-41.616846 24.732141-90.038998 0.27079-93.540119-48.991084-2.480873-34.866247-0.481404-70.052518-0.481404-105.096556-0.399347 0-0.795958 0-1.19804 0 0-15.024735-0.448581-30.063146 0.10394-45.068733C753.301683 662.854111 752.639753 638.4502 756.69066 614.894217z"  horiz-adv-x="1041" />

    
    <glyph glyph-name="shouji" unicode="&#58920;" d="M720.129736-63.855074l-416.260495 0c-61.306274 0-111.005186 50.116421-111.005186 111.964024L192.864054 719.89105c0 61.847603 49.697889 111.964024 111.005186 111.964024l416.260495 0c61.306274 0 111.005186-50.116421 111.005186-111.964024l0-671.7821C831.133899-13.739676 781.43601-63.855074 720.129736-63.855074L720.129736-63.855074zM775.623631 719.89105c0 30.905894-24.848944 55.982012-55.493895 55.982012l-416.260495 0c-30.644951 0-55.502082-25.076118-55.502082-55.982012l0-27.991518 527.256472 0L775.623631 719.89105 775.623631 719.89105zM775.623631 635.918543 248.367159 635.918543 248.367159 188.933279l527.256472 0L775.623631 635.918543 775.623631 635.918543zM775.623631 132.951267 248.367159 132.951267l0-84.842317c0-30.925337 24.857131-55.982012 55.502082-55.982012l416.260495 0c30.644951 0 55.493895 25.056676 55.493895 55.982012L775.623631 132.951267 775.623631 132.951267zM512.001535 20.117432c-22.980387 0-41.614793 18.797112-41.614793 41.98523 0 23.190165 18.634406 41.989323 41.614793 41.989323 22.979364 0 41.612747-18.797112 41.612747-41.989323C553.614282 38.914544 534.980899 20.117432 512.001535 20.117432L512.001535 20.117432z"  horiz-adv-x="1024" />

    
    <glyph glyph-name="huidingbu" unicode="&#58958;" d="M873.308 830.737h-725.292c-24.021 0-43.431-19.444-43.431-43.466 0-23.987 19.411-43.466 43.466-43.466h725.361c23.987 0 43.43 19.443 43.43 43.466-0.034 24.021-19.478 43.466-43.535 43.466v0zM863.155 369.062l-321.263 321.297c-7.915 8.191-18.995 13.284-31.214 13.284-12.459 0-23.677-5.231-31.593-13.628l-320.916-320.953c-7.846-7.882-12.665-18.756-12.665-30.767 0-24.125 19.548-43.673 43.707-43.673 12.354 0 23.573 5.129 31.489 13.457l245.894 245.893v-574.556c0-23.987 19.443-43.466 43.466-43.466s43.43 19.444 43.43 43.466v575.898l248.028-247.924c7.915-7.882 18.825-12.733 30.801-12.733 24.126 0 43.639 19.513 43.639 43.637-0.103 12.010-4.923 22.851-12.803 30.766v0 0 0z"  horiz-adv-x="1024" />

    
    <glyph glyph-name="minus" unicode="&#58905;" d="M876.495 858.269h-728.989c-60.529 0-109.774-49.244-109.774-109.774v-728.989c0-60.529 49.244-109.774 109.774-109.774h728.99c60.528 0 109.773 49.244 109.773 109.774v728.99c0 60.529-49.244 109.773-109.774 109.773zM942.607 19.505c0-36.454-29.658-66.113-66.112-66.113h-728.99c-36.454 0-66.113 29.658-66.113 66.113v728.99c0 36.454 29.658 66.113 66.113 66.113h728.99c36.453 0 66.112-29.658 66.112-66.113v-728.99zM751.044 405.83h-478.089c-12.057 0-21.83-9.774-21.83-21.83s9.774-21.83 21.83-21.83h478.089c12.057 0 21.83 9.774 21.83 21.83s-9.774 21.83-21.83 21.83z"  horiz-adv-x="1024" />

    
    <glyph glyph-name="paimaizixun" unicode="&#59118;" d="M343.04-23.552c-7.168 0-14.848 2.56-20.48 8.192-11.264 11.264-11.264 29.696 0 40.96l161.28 161.28c5.632 5.632 12.8 8.192 20.48 8.192l336.896 0c7.68 0 14.336 6.656 14.336 14.336L855.552 683.52c0 7.68-6.656 14.336-14.336 14.336L193.024 697.856c-7.68 0-14.336-6.656-14.336-14.336L178.688 209.92c0-7.68 6.656-14.336 14.336-14.336l122.88 0c15.872 0 28.672-12.8 28.672-28.672 0-15.872-12.8-28.672-28.672-28.672l-122.88 0c-39.936 0-72.192 32.256-72.192 72.192L120.832 683.52c0 39.936 32.256 72.192 72.192 72.192l647.68 0c39.936 0 72.192-32.256 72.192-72.192L912.896 209.92c0-39.936-32.256-72.192-72.192-72.192l-325.12 0L363.52-14.848C357.888-20.48 350.208-23.552 343.04-23.552zM340.48 415.232 283.136 415.232c-15.872 0-28.672 12.8-28.672 28.672s12.8 28.672 28.672 28.672l57.344 0c15.872 0 28.672-12.8 28.672-28.672S356.352 415.232 340.48 415.232zM545.792 415.232 488.448 415.232c-15.872 0-28.672 12.8-28.672 28.672s12.8 28.672 28.672 28.672l57.344 0c15.872 0 28.672-12.8 28.672-28.672S561.664 415.232 545.792 415.232zM751.104 415.232l-57.344 0c-15.872 0-28.672 12.8-28.672 28.672s12.8 28.672 28.672 28.672l57.344 0c15.872 0 28.672-12.8 28.672-28.672S766.976 415.232 751.104 415.232z"  horiz-adv-x="1024" />

    
    <glyph glyph-name="zhanghuguanli" unicode="&#58978;" d="M829.01412 248.819205c44.030819 37.592177 72.082712 93.383854 72.082712 155.675572 0 112.915699-91.876524 204.7912-204.7912 204.7912s-204.7912-91.876524-204.7912-204.7912c0-62.292742 28.052916-118.083395 72.083735-155.675572-91.413989-47.975664-153.999396-143.702889-153.999396-253.906827 0-22.61916 18.339694-40.957831 40.957831-40.957831 22.61916 0 40.957831 18.339694 40.957831 40.957831 0 112.915699 91.876524 204.7912 204.7912 204.7912 112.915699 0 204.7912-91.876524 204.7912-204.7912 0-22.61916 18.339694-40.957831 40.957831-40.957831s40.957831 18.339694 40.957831 40.957831C983.01454 105.116315 920.42811 200.84354 829.01412 248.819205zM573.431118 404.494777c0 67.757197 55.117318 122.874515 122.874515 122.874515 67.757197 0 122.874515-55.117318 122.874515-122.874515 0-67.757197-55.117318-122.874515-122.874515-122.874515C628.549459 281.620261 573.431118 336.73758 573.431118 404.494777zM880.618429 814.077176l-737.249137 0c-67.757197 0-122.874515-55.117318-122.874515-122.874515l0-614.373599c0-67.757197 55.117318-122.874515 122.874515-122.874515l155.293879 0c22.61916 0 40.957831 18.339694 40.957831 40.957831s-18.339694 40.957831-40.957831 40.957831l-155.293879 0c-22.579251 0-40.957831 18.379603-40.957831 40.957831l0 614.374622c0 22.579251 18.379603 40.957831 40.957831 40.957831l737.249137 0c22.579251 0 40.957831-18.379603 40.957831-40.957831l0-163.833369c0-22.61916 18.339694-40.957831 40.957831-40.957831s40.957831 18.339694 40.957831 40.957831L1003.49192 691.202661C1003.492944 758.959857 948.375625 814.077176 880.618429 814.077176zM220.166375 527.369292l180.912349 0c22.61916 0 40.957831 18.339694 40.957831 40.957831 0 22.61916-18.339694 40.957831-40.957831 40.957831l-180.912349 0c-22.61916 0-40.957831-18.339694-40.957831-40.957831C179.208545 545.708985 197.547215 527.369292 220.166375 527.369292zM380.599298 424.974203l-160.432922 0c-22.61916 0-40.957831-18.339694-40.957831-40.957831 0-22.61916 18.339694-40.957831 40.957831-40.957831l160.432922 0c22.61916 0 40.957831 18.339694 40.957831 40.957831C421.558152 406.63451 403.218458 424.974203 380.599298 424.974203zM339.641467 240.661408l-119.475092 0c-22.61916 0-40.957831-18.339694-40.957831-40.957831 0-22.61916 18.339694-40.957831 40.957831-40.957831l119.475092 0c22.61916 0 40.957831 18.339694 40.957831 40.957831C380.599298 222.322737 362.260627 240.661408 339.641467 240.661408z"  horiz-adv-x="1024" />

    
    <glyph glyph-name="kaiguan" unicode="&#58914;" d="M694.398 757.704c-20.758 9.137-44.999-0.286-54.138-21.046s0.287-44.999 21.046-54.137c135.473-59.627 223.010-193.77 223.010-341.746 0-99.68-38.817-193.393-109.302-263.877s-164.198-109.302-263.877-109.302-193.396 38.817-263.878 109.302c-70.485 70.484-109.301 164.198-109.301 263.877 0 148.823 88.235 283.273 224.786 342.523 20.81 9.029 30.358 33.217 21.33 54.026-9.029 20.81-33.221 30.359-54.027 21.33-166.591-72.283-274.234-236.31-274.234-417.877 0-61.452 12.045-121.085 35.798-177.244 22.935-54.224 55.76-102.914 97.563-144.719 41.803-41.802 90.492-74.626 144.719-97.561 56.161-23.755 115.795-35.798 177.245-35.798 61.451 0 121.085 12.045 177.244 35.798 54.226 22.935 102.914 55.76 144.719 97.561 41.802 41.803 74.626 90.493 97.561 144.719 23.755 56.161 35.798 115.794 35.798 177.244 0.001 180.533-106.79 344.188-272.061 416.928zM512 381.963c22.683 0 41.072 18.388 41.072 41.072v413.684c0 22.683-18.387 41.072-41.072 41.072s-41.072-18.388-41.072-41.072v-413.684c0-22.683 18.388-41.072 41.072-41.072z"  horiz-adv-x="1024" />

    
    <glyph glyph-name="shanghu" unicode="&#58897;" d="M1147.668309 568.394493a34.276348 34.276348 0 0 1-2.451678 8.5573L1047.314517 815.84898c-16.973157 49.552189-65.676689 79.915282-122.654634 80.033151H237.412036c-57.732308 0-102.593305-30.080206-118.859248-77.652194L13.29564 574.476541a56.200009 56.200009 0 0 1-1.508725-5.752014 222.72554 222.72554 0 0 1-11.480455-70.344307c0.094295-83.333487 46.746904-159.453382 121.711681-198.633086 0 0 0-0.047148 0.047147-0.047148l0.047148-0.023574s0.047148 0 0.047148-0.047147c30.858143-16.124499 67.16184-24.328192 108.062434-24.328192 68.529122 0.212164 132.037018 29.726599 175.294995 80.245315 43.069386-50.117961 106.058658-79.420231 174.493485-79.84456 67.869055 0.542198 130.69331 29.985911 173.550532 80.056724 43.281551-50.518716 106.860169-79.915282 175.742897-79.915281 41.67853 0.188591 78.689442 8.793038 109.854045 25.530457 73.856807 39.556886 119.684332 115.370321 119.637184 197.878724a215.559096 215.559096 0 0 1-11.126847 69.142041z m-148.491551-195.167733c-18.929785-10.16032-42.503614-15.346563-69.967126-15.51158-50.872324 0-97.242046 25.294719-124.304802 68.246236a65.134491 65.134491 0 0 1-11.150421 17.23247c-6.907132 7.590773-19.424835 16.548828-40.051937 16.548828-16.643124 0-31.7068-6.671394-40.240526-16.902436-5.634145-6.223491-8.722317-12.399834-10.938257-16.926009a145.780561 145.780561 0 0 0-122.560339-68.316958 145.992725 145.992725 0 0 0-123.479718 68.481974c-1.885906 3.771813-5.021226 10.113173-9.901008 15.488006-19.637 22.96091-63.578618 21.782218-80.693218 1.768038a65.25236 65.25236 0 0 1-11.739767-18.175423 146.794235 146.794235 0 0 0-124.021917-68.010498c-26.992035 0-50.094387 4.950504-68.717712 14.686496h-0.070722c-47.784152 24.941111-77.487177 73.408905-77.534325 126.473595 0 15.676597 2.663843 31.494636 8.015102 46.888346a43.375846 43.375846 0 0 1 1.013675 3.583222L196.511442 789.021962c2.121645 6.152769 8.5573 24.87039 40.806298 24.87039h687.460012c13.248492-0.777936 36.044385-3.064598 44.153783-26.449836l97.077029-236.940559c0.377181-1.72089 0.848658-3.347484 1.249413-4.691192 5.398407-15.440858 8.06225-31.117455 8.06225-46.676182 0.094295-52.45177-29.090105-100.683825-76.143469-125.907823z m31.329619-131.376951c-23.102353 0-41.772826-18.293292-41.772826-40.924168l0.094296-223.385607a23.361665 23.361665 0 0 0-23.479534-23.055205l-785.927898-0.49505c-12.942032 0-23.479534 10.231042-23.479534 22.84304l-0.282886 219.543073c-0.047148 22.583729-18.764768 40.853446-41.772825 40.853446h-0.094296c-23.055205-0.047148-41.725678-18.387587-41.67853-41.018463l0.30646-219.40163c0-57.732308 47.996317-104.691376 107.001611-104.691376l786.045767 0.495051c58.958147 0.117869 106.907316 47.194806 106.907316 104.974262l-0.094295 223.338459c0 22.630876-18.717621 40.924168-41.772826 40.924168zM906.413739 528.436853H238.072103c-23.055205 0-41.772826 18.340439-41.772826 40.947741 0 22.607302 18.717621 40.947742 41.772826 40.947742H906.413739c23.102353 0 41.772826-18.340439 41.772826-40.947742 0-22.607302-18.670473-40.947742-41.772826-40.947741z"  horiz-adv-x="1158" />

    
    <glyph glyph-name="message1" unicode="&#58928;" d="M511.989 0.003c-32.747 0-85.335 0-85.335 0l-234.65-128.003v234.65c-116.973 82.114-192.004 199.961-192.004 341.362-0 247.408 229.231 447.988 511.989 447.988s511.989-200.58 511.989-447.988c0.021-247.45-229.21-448.009-511.989-448.009v0zM511.989 832.020c-247.408 0-448.031-171.929-448.031-384.008 0-130.136 76.524-250.544 192.047-319.985v-142.232l170.628 78.21c0 0 47.98 0 85.335 0 247.408 0 448.031 171.929 448.031 384.008 0.021 212.1-200.602 384.008-448.009 384.008v0zM768.016 384.011c-35.371 0-64.023 28.651-64.023 64.023s28.651 64.023 64.023 64.023c35.329 0 63.98-28.651 63.98-64.023s-28.651-64.023-63.98-64.023v0zM511.989 384.011c-35.371 0-64.023 28.651-64.023 64.023s28.651 64.023 64.023 64.023c35.371 0 64.023-28.651 64.023-64.023s-28.651-64.023-64.023-64.023v0zM255.984 384.011c-35.329 0-63.98 28.651-63.98 64.001s28.651 64.023 63.98 64.023c35.371 0 64.023-28.651 64.023-64.023s-28.673-64.001-64.023-64.001v0z"  horiz-adv-x="1024" />

    
    <glyph glyph-name="wallet" unicode="&#59059;" d="M591.77528889 167.77671110999995V306.15893332999997c0 38.05411555 31.13756445 69.19168 69.19168 69.19168h242.17031111V513.73397333H211.22161778c-38.21112889 0-69.19168 30.98055111-69.19168 69.19168s30.98055111 69.19168 69.19168 69.19168h691.91566222v69.19168c0 38.05411555-31.13756445 69.19168-69.19168 69.19168H72.83825778c-38.05411555 0-69.19168-31.13756445-69.19168-69.19168v-674.61802666c0-38.05411555 31.13756445-69.19168 69.19168-69.19168H833.9456c38.05411555 0 69.19168 31.13756445 69.19168 69.19168v51.89404444H660.96696889c-38.05411555 0-69.19168 31.13642667-69.19168 69.19168zM983.94453333 332.29710222000006H676.20750222c-20.02488889 0-36.40888889-16.384-36.40888889-36.40888889v-117.45962666c0-20.02488889 16.384-36.40888889 36.40888889-36.40888889h307.73589333c20.02488889 0 36.40888889 16.384 36.4088889 36.40888889V295.88821333c0.00113778 20.02488889-16.38286222 36.40888889-36.40775112 36.40888889zM743.58670222 185.26435555c-28.66062222 0-51.89404445 23.23342222-51.89404444 51.89404445 0 28.66062222 23.23342222 51.89404445 51.89404444 51.89404445 28.66062222 0 51.89404445-23.23342222 51.89404445-51.89404445 0-28.65948445-23.23456-51.89404445-51.89404445-51.89404445z"  horiz-adv-x="1024" />

    
    <glyph glyph-name="jifenshangcheng" unicode="&#59204;" d="M1050.175 514.387l-151.589 247.45c-12.987 20.81-35.737 34.463-61.679 34.524h-575.113c-0.069 0-0.147 0-0.226 0-25.812 0-48.448-13.615-61.114-34.053l-151.563-246.342c-6.715-10.769-10.7-23.844-10.7-37.85 0-19.249 7.523-36.742 19.79-49.701l440.096-485.415c13.221-13.895 31.846-22.542 52.492-22.558 19.726 0 38.806 8.199 52.387 22.578l438.080 484.016c12.222 12.925 19.737 30.415 19.737 49.658 0 13.941-3.942 26.956-10.774 38.003zM700.094 421.207h-308.704c-24.557 0-44.462 19.905-44.462 44.462s19.905 44.462 44.462 44.462h308.704c0 0 0 0 0 0 24.557 0 44.462-19.905 44.462-44.462 0-24.557-19.905-44.462-44.462-44.462 0 0 0 0 0 0z"  horiz-adv-x="1089" />

    
    <glyph glyph-name="zidingyi" unicode="&#59013;" d="M939.488-114.24h-836.32c-9.024 0-17.28 3.136-23.936 8.256-0.704-0.064-1.376-0.288-2.048-0.288-7.392 0-14.656 2.56-20.416 7.456a31.871 31.871 0 0 0-11.136 27.648L73.984 202.56c0.64 6.336 3.2 12.288 7.296 17.152l400.032 481.28a31.399 31.399 0 0 0 21.6 11.2c8.544 0.864 16.768-1.984 23.2-7.424L761.12 504.896c13.312-11.328 15.008-31.328 3.744-44.736L365.696-20.064c-4.096-4.864-9.536-8.416-15.648-10.112l-76.896-21.792h664.512c21.92 0 41.504 1.184 41.504-20.736s-17.76-41.504-39.68-41.504z m-243.52 591.136L509.344 635.584 136.096 186.24 113.6-31.136l209.824 59.488L696 476.896z m137.12 64.064l-284.48 239.808 45.664 54.336c24.96 29.696 61.184 46.72 99.488 46.72 29.504 0 58.08-10.432 80.512-29.312l90.72-76.448c53.408-45.056 59.584-126.112 13.76-180.736l-45.632-54.4z m-8.96 186.432l-90.72 76.448c-25.92 21.856-68 17.184-90.592-9.664l-4.768-5.664 187.296-157.888 4.768 5.696c23.296 27.776 20.608 68.64-6.016 91.072z"  horiz-adv-x="1024" />

    
    <glyph glyph-name="duihuan" unicode="&#58937;" d="M923.013177-128H133.07373c-64.626913 0-117.026401 52.348327-117.026401 117.034153V720.400711c0 64.685826 52.401038 117.080662 117.026401 117.080662h117.032603v14.630432c0 24.223853 19.65504 43.888195 43.881993 43.888195 24.25796 0 43.888195-19.664342 43.888195-43.888195v-14.630432h380.341617v14.630432c0 24.223853 19.661242 43.888195 43.888195 43.888195 24.220752 0 43.881994-19.664342 43.881993-43.888195v-14.630432h117.024851c64.631564 0 117.034153-52.394837 117.034152-117.080662v-731.366558c-0.003101-64.685826-52.402588-117.034153-117.034152-117.034153m29.262414 819.203411c0 32.299504-26.219123 58.507774-58.515526 58.507774H805.985225v-14.628881c0-24.226953-19.658141-43.881994-43.881993-43.881994s-43.888195 19.65504-43.888195 43.881994V749.711185H337.874971v-14.628881c0-24.226953-19.630235-43.881994-43.888195-43.881994-24.226953 0-43.881994 19.65504-43.881994 43.881994V749.711185h-87.773289c-32.297953 0-58.515526-26.208271-58.515526-58.507774v-672.914596c0-32.33051 26.217573-58.515526 58.515526-58.515526h731.428572c32.299504 0 58.515526 26.186566 58.515526 58.515526V691.203411M526.318715 145.086924z m-125.889618 117.437238v96.872155l-151.341329-144.346255 151.341329-144.344706v96.872156h397.353351v94.94665M642.138962 497.03431H242.763986v-94.943549h399.373426v-96.875257l173.213336 144.347807-173.213336 144.343155v-96.872156h0.00155z"  horiz-adv-x="1084" />

    
    <glyph glyph-name="shangjia" unicode="&#58902;" d="M355.215164 308.767552c-16.488533 0-29.978778-13.490246-29.978778-29.978779v-214.846206c0-16.488533 13.490246-29.978778 29.978778-29.978778 16.487509 0 29.978778 13.490246 29.978779 29.978778V278.788773c0 16.488533-13.491269 29.978778-29.978779 29.978779zM1015.241522 477.646843c-0.49835 11.991102-2.49789 23.482831-5.495154 35.473933-0.500397 1.499144-1.499144 4.497431-2.49789 5.996574L875.841635 786.924769c-14.490016 28.979008-43.968397 45.966914-76.445066 45.966914H229.804896c-32.476669 0-62.455447-16.986883-76.445066-46.465264L23.453155 517.11781c-0.499373-1.499144-1.499144-3.497661-1.998517-4.996804-3.497661-14.488992-6.494924-27.479865-6.494925-41.470507-0.499373-77.943187 50.464345-146.894581 120.413464-171.376159v-228.835825c0-70.948889 59.957557-131.405819 130.406049-131.405819h499.641531c70.948889 0 129.408325 60.956304 129.408325 131.405819V299.773713c69.949118 26.481118 123.410728 103.925954 120.41244 177.87313zM765.420757-6.006552H265.779226c-39.470967 0-70.448492 37.473473-70.448492 76.445067V289.781128c59.956533-0.49835 110.920252 27.479865 144.395667 70.948889 7.995091 10.492982 24.481577 10.492982 32.977066 0 32.976042-42.968627 84.939531-70.448492 142.896524-70.448492 57.95904 0 109.921505 27.479865 142.897548 70.448492 8.493441 10.492982 23.482831 10.993378 31.976272 0 33.475416-43.469024 84.440158-71.447239 144.397714-70.948889v-219.342613c0-38.972617-29.978778-76.445066-69.450768-76.445067z"  horiz-adv-x="1024" />

    
    <glyph glyph-name="tiaoxingma" unicode="&#58919;" d="M0.2 762.4h128v-630.8H0.2V762.4z m192 0h64v-630.8h-64V762.4z m128 0h64v-630.8h-64V762.4z m192 0h64v-630.8h-64V762.4z m256 0h64v-630.8h-64V762.4z m192 0h64v-630.8h-64V762.4z m-320 0h32v-630.8h-32V762.4z m-192 0h32v-630.8h-32V762.4z m416 0h32v-630.8h-32V762.4zM0.2 68.6h64v-63H0.2v63z m192 0h64v-63h-64v63z m128 0h64v-63h-64v63z m320 0h64v-63h-64v63z m320 0h64v-63h-64v63z m-192 0h128v-63h-128v63z m-320 0h128v-63h-128v63z"  horiz-adv-x="1024" />

    
    <glyph glyph-name="fanhui" unicode="&#58887;" d="M691.242 15.733l-368.456 368.456 368.456 368.456c11.492 11.492 11.655 30.836-0.175 42.667-11.913 11.913-30.933 11.909-42.668 0.175l-385.932-385.931c-6.675-6.675-9.528-15.999-8.429-24.96-1.406-9.145 1.416-18.76 8.429-25.773l385.932-385.932c11.492-11.492 30.836-11.655 42.668 0.175 11.913 11.913 11.908 30.933 0.175 42.667z"  horiz-adv-x="1024" />

    
    <glyph glyph-name="qianjin" unicode="&#58888;" d="M313.887 15.733l368.456 368.456-368.456 368.456c-11.492 11.492-11.655 30.836 0.175 42.667 11.913 11.913 30.933 11.909 42.667 0.175l385.932-385.932c6.675-6.675 9.528-15.999 8.429-24.96 1.406-9.145-1.416-18.76-8.429-25.773l-385.932-385.931c-11.492-11.492-30.836-11.655-42.667 0.175-11.913 11.913-11.909 30.933-0.175 42.667z"  horiz-adv-x="1024" />

    
    <glyph glyph-name="shangjiantou" unicode="&#58889;" d="M65.582671 160.791335l446.417329 446.41733 446.417329-446.41733z"  horiz-adv-x="1024" />

    
    <glyph glyph-name="xiajiantou" unicode="&#58890;" d="M65.582671 607.208665l446.417329-446.41733 446.417329 446.41733z"  horiz-adv-x="1024" />

    
    <glyph glyph-name="youjiantou" unicode="&#58891;" d="M288.791335 830.417329l446.41733-446.417329-446.41733-446.417329z"  horiz-adv-x="1024" />

    
    <glyph glyph-name="zuojiantou" unicode="&#58892;" d="M735.208665 830.417329l-446.41733-446.417329 446.41733-446.417329z"  horiz-adv-x="1024" />

    
    <glyph glyph-name="set" unicode="&#59575;" d="M599.381 820.907l13.653-94.663 5.461-39.139 35.499-16.384c14.563-7.282 30.037-15.474 43.691-24.576l31.858-20.935 35.499 13.653 92.843 36.409 86.471-144.725-76.459-58.254-31.858-24.576 3.641-40.050c0.91-8.192 0.91-16.384 0.91-23.666s0-15.474-0.91-23.666l-3.641-40.050 31.858-24.576 76.459-58.254-85.561-144.725-93.753 36.409-35.499 13.653-31.858-20.935c-14.563-10.013-29.127-18.205-43.691-24.576l-35.499-16.384-19.115-133.803h-174.763l-13.653 94.663-5.461 39.139-35.499 16.384c-14.563 7.282-30.037 15.474-43.691 24.576l-31.858 20.935-35.499-13.653-92.843-36.409-86.471 144.725 76.459 58.254 31.858 24.576-3.641 40.050c-0.91 8.192-0.91 16.384-0.91 23.666s0 15.474 0.91 23.666l3.641 40.050-31.858 24.576-76.459 58.254 85.561 144.725 93.753-36.409 35.499-13.653 31.858 20.935c14.563 10.013 29.127 18.205 43.691 24.576l35.499 16.384 19.115 133.803h174.763M609.394 893.725h-194.787c-30.947 0-56.434-21.845-60.985-50.973l-14.563-105.586c-18.205-8.192-35.499-18.205-53.703-30.037l-102.855 40.050c-7.282 2.731-14.563 3.641-21.845 3.641-21.845 0-42.781-10.923-52.793-30.037l-97.394-163.84c-15.474-25.486-9.102-59.165 14.563-77.369l86.471-65.536c-0.91-10.923-1.821-20.935-1.821-30.037s0-19.115 1.821-30.037l-86.471-65.536c-23.666-18.205-30.037-50.062-14.563-77.369l96.483-162.93c10.923-19.115 31.858-30.947 53.703-30.947 7.282 0 13.653 0.91 20.935 3.641l102.855 40.050c17.294-11.833 35.499-21.845 53.703-30.037l15.474-104.675c3.641-29.127 30.037-51.883 60.985-51.883h194.787c30.947 0 56.434 21.845 60.985 50.973l15.474 105.586c18.205 8.192 35.499 18.205 53.703 30.037l102.855-40.050c7.282-2.731 14.563-3.641 21.845-3.641 21.845 0 42.781 10.923 52.793 30.037l97.394 164.75c14.563 26.397 8.192 58.254-15.474 76.459l-86.471 65.536c0.91 9.102 1.821 19.115 1.821 30.037s-0.91 20.935-1.821 30.037l86.471 65.536c23.666 18.205 30.037 50.062 14.563 77.369l-96.483 162.93c-10.923 19.115-31.858 30.947-53.703 30.947-7.282 0-13.653-0.91-20.935-3.641l-102.855-40.050c-17.294 11.833-35.499 21.845-53.703 30.037l-15.474 104.675c-4.551 30.037-30.037 51.883-60.985 51.883zM512 529.635c80.099 0 145.635-65.536 145.635-145.635s-65.536-145.635-145.635-145.635-145.635 65.536-145.635 145.635 65.536 145.635 145.635 145.635M512 602.453c-120.149 0-218.453-98.304-218.453-218.453s98.304-218.453 218.453-218.453 218.453 98.304 218.453 218.453-98.304 218.453-218.453 218.453z"  horiz-adv-x="1024" />

    
    <glyph glyph-name="sousuo" unicode="&#59578;" d="M716.8 261.12h-43.52l-15.36 15.36c53.76 62.293 85.333 142.507 85.333 230.4 0 196.267-158.72 354.987-354.987 354.987s-353.28-159.573-353.28-354.987 158.72-354.987 354.987-354.987c87.893 0 168.96 32.427 230.4 85.333l15.36-15.36v-42.667l273.067-272.213 81.067 81.067c-0.853 0-273.067 273.067-273.067 273.067zM389.12 261.12c-135.68 0-245.76 110.080-245.76 245.76s110.080 245.76 245.76 245.76 245.76-110.080 245.76-245.76-110.080-245.76-245.76-245.76z"  horiz-adv-x="1024" />

    
    <glyph glyph-name="yuanjia" unicode="&#59615;" d="M512 768c212 0 384-172 384-384s-172-384-384-384-384 172-384 384 172 384 384 384M512 832c-247.2 0-448-200.8-448-448s200.8-448 448-448 448 200.8 448 448-200.8 448-448 448zM768 414.4h-223.2v225.6h-65.6v-225.6h-223.2v-65.6h223.2v-220.8h65.6v220.8h223.2z"  horiz-adv-x="1024" />

    
    <glyph glyph-name="jian-xianxingyuankuang" unicode="&#59622;" d="M512 768c212 0 384-172 384-384s-172-384-384-384-384 172-384 384 172 384 384 384m0 64C264.8 832 64 631.2 64 384s200.8-448 448-448 448 200.8 448 448S759.2 832 512 832z m256-416H256v-64h512v64z"  horiz-adv-x="1024" />

    
    <glyph glyph-name="yuanx-fan" unicode="&#59623;" d="M512 832c-247.2 0-448-200.8-448-448s200.8-448 448-448 448 200.8 448 448-200.8 448-448 448zM750.4 190.4l-45.6-45.6-192.8 193.6-193.6-192.8-45.6 45.6 194.4 192.8-193.6 193.6 45.6 45.6 192.8-194.4 193.6 193.6 45.6-45.6-193.6-192.8 192.8-193.6z"  horiz-adv-x="1024" />

    
    <glyph glyph-name="yuanx" unicode="&#59624;" d="M512 768c212 0 384-172 384-384s-172-384-384-384-384 172-384 384 172 384 384 384M512 832c-247.2 0-448-200.8-448-448s200.8-448 448-448 448 200.8 448 448-200.8 448-448 448zM750.4 577.6l-45.6 45.6-192.8-194.4-193.6 193.6-45.6-45.6 194.4-192.8-193.6-193.6 45.6-45.6 192.8 193.6 193.6-193.6 45.6 45.6-193.6 193.6 192.8 193.6z"  horiz-adv-x="1024" />

    
    <glyph glyph-name="tupian" unicode="&#58947;" d="M905.158846 783.089417H119.212614c-54.203506 0-98.213859-44.669362-98.213859-99.772354v-598.634126c0-55.102992 44.010353-99.772354 98.213859-99.772354h785.947256c54.203506 0 98.213859 44.669362 98.213859 99.772354v598.634126c-0.001023 55.102992-44.011376 99.772354-98.214883 99.772354z m32.738636-476.076836c-47.367821 19.548218-103.728456 9.832949-142.222166-29.199019l-87.899956-89.340771c-1.798972 2.038426-3.118014 4.376681-5.095041 6.29538l-278.155091 282.589077c-51.265594 51.984978-134.308939 51.984978-185.514158 0L86.473979 322.421526V616.822626c0 55.102992 44.010353 99.772354 98.27321 99.772355H839.623247c54.261834 0 98.272187-44.669362 98.272188-99.772355l0.002047-309.810045zM725.041606 616.822626c-63.317071 0-114.642017-52.104705-114.642017-116.440989 0-64.276932 51.324946-116.380614 114.642017-116.380614S839.623247 436.104705 839.623247 500.380614c0 64.337307-51.324946 116.442012-114.581641 116.442012z"  horiz-adv-x="1024" />

    
    <glyph glyph-name="caiwuguanli" unicode="&#58922;" d="M186.668 729.806h653.473c22.447 0 40.843 16.525 40.843 36.684s-18.395 36.684-40.843 36.684h-653.473c-22.447 0-40.843-16.525-40.843-36.684-0.105-20.16 18.291-36.684 40.843-36.684zM432.030 398.913l-0.105-0.105h0.207l-0.105 0.105zM904.573 656.333h-784.626c-22.447 0-40.843-18.395-40.843-40.843v-609.929c0-22.447 18.395-40.843 40.843-40.843h784.626c22.447 0 40.843 18.395 40.843 40.843v609.929c0 22.447-18.395 40.843-40.843 40.843zM646.738 272.957c22.447 0 40.843-16.525 40.843-36.684s-18.395-36.58-40.843-36.58h-97.792v-88.544c0-22.447-16.525-40.843-36.684-40.843s-36.684 18.395-36.684 40.843v88.544h-97.792c-22.447 0-40.843 16.525-40.843 36.684s18.395 36.684 40.843 36.684h97.792v52.586h-97.792c-22.447 0-40.843 16.525-40.843 36.684s18.395 36.684 40.843 36.684h54.249l-20.058 38.243-23.798 45.104c-10.393 19.953-4.366 43.855 13.509 53.209s41.050 0.727 51.442-19.225l19.122-36.478c0.311-0.622 0.622-1.143 0.934-1.765l19.641-37.516 0.105 0.105 19.847-37.932 19.847 37.932 0.105-0.105 19.641 37.516c0.311 0.622 0.622 1.143 0.934 1.765l19.122 36.478c10.393 19.953 33.568 28.58 51.442 19.225 17.875-9.354 23.903-33.361 13.509-53.209l-23.798-45.311-20.058-38.243-0.105 0.105v-0.105h53.209c22.447 0 40.843-16.525 40.843-36.684s-18.395-36.684-40.843-36.684h-97.792v-52.586l97.895 0.105z"  horiz-adv-x="1024" />

    
    <glyph glyph-name="minus1" unicode="&#58898;" d="M507.631 874.428q101.581 0 191.147-38.775t155.648-104.858 104.858-155.102 38.775-190.601-38.775-191.147-104.858-155.648-155.648-104.858-191.147-38.775-190.601 38.775-155.102 104.858-104.858 155.648-38.775 191.147 38.775 190.601 104.858 155.102 155.102 104.858 190.601 38.775zM751.206 318.464q32.768 0 58.982 16.93t26.214 50.79q0 32.768-26.214 48.606t-58.982 15.838h-482.782q-32.768 0-60.075-15.838t-27.307-48.606q0-33.86 27.307-50.79t60.075-16.93h482.782z"  horiz-adv-x="1024" />

    
    <glyph glyph-name="fabu" unicode="&#59020;" d="M865.745455 88.436364L449.163636 216.436364 865.745455 695.854545 321.163636 216.436364 0 344.436364 1024 889.018182l-158.254545-800.581818M449.163636-104.727273v223.418182l128-65.163636L449.163636-104.727273"  horiz-adv-x="1030" />

    
    <glyph glyph-name="up" unicode="&#58899;" d="M259.376 486.075l223.01 223.009a20.479 20.479 0 0 0 14.48 5.996 20.473 20.473 0 0 0 14.46900001-5.996l223.02-223.02c7.991-7.991 7.991-20.957-1e-8-28.94899999s-20.958-7.99200001-28.95-1e-8L517.33 645.2 517.32999999 40.44500000000005c0-11.30699999-9.158-20.466-20.46599999-20.46599999-11.297 0-20.46599999 9.159-20.46599999 20.46599999L476.398 645.2l-188.073-188.063c-7.992-7.992-20.958-8.003-28.95-0.01-7.992 8.002-7.992 20.957 0 28.949z"  horiz-adv-x="1024" />

    
    <glyph glyph-name="loading" unicode="&#58967;" d="M133.260165 320.13181H0v-319.926772l94.7552 87.076957a511.939712 511.939712 0 0 1 925.02916 232.849815h-129.278853A383.969003 383.969003 0 0 0 189.965408 174.81396l158.11492 145.31785H133.260165zM511.882836 896A511.939712 511.939712 0 0 1 3.981311 448.102519h129.278854a383.969003 383.969003 0 0 0 706.455189 135.933331l-135.876455-135.933331H1023.765671V768.029291l-91.627027-91.627028A511.143449 511.143449 0 0 1 511.882836 896z"  horiz-adv-x="1024" />

    


  </font>
</defs>
</svg>
